*
*
G04 PADS Layout (Build Number 2008.43.1) generated Gerber (RS-274-X) file*
G04 PC Version=2.1*
*
%IN "WS2378-0815.pcb"*%
*
%MOIN*%
*
%FSLAX35Y35*%
*
*
*
*
G04 PC Standard Apertures*
*
*
G04 Thermal Relief Aperture macro.*
%AMTER*
1,1,$1,0,0*
1,0,$1-$2,0,0*
21,0,$3,$4,0,0,45*
21,0,$3,$4,0,0,135*
%
*
*
G04 Annular Aperture macro.*
%AMANN*
1,1,$1,0,0*
1,0,$2,0,0*
%
*
*
G04 Odd Aperture macro.*
%AMODD*
1,1,$1,0,0*
1,0,$1-0.005,0,0*
%
*
*
G04 PC Custom Aperture Macros*
*
*
*
*
*
*
G04 PC Aperture Table*
*
%ADD011C,0.01*%
%ADD012C,0.008*%
%ADD013C,0.012*%
%ADD014C,0.005*%
%ADD032R,0.056X0.034*%
%ADD033R,0.034X0.056*%
%ADD051R,0.03937X0.03937*%
%ADD137C,0.001*%
%ADD139C,0.007*%
%ADD170R,0.02756X0.03937*%
%ADD202R,0.02165X0.02165*%
%ADD214R,0.01811X0.01811*%
%ADD373R,0.028X0.028*%
%ADD378R,0.012X0.012*%
%ADD379R,0.02X0.02*%
%ADD380R,0.03X0.03*%
%ADD384R,0.03346X0.03346*%
%ADD393R,0.12X0.12*%
%ADD396R,0.03937X0.03937*%
%ADD408R,0.03504X0.03504*%
%ADD409R,0.01614X0.01614*%
%ADD410R,0.01968X0.01968*%
%ADD411R,0.09055X0.09055*%
*
*
*
*
G04 PC Circuitry*
G04 Layer Name WS2378-0815.pcb - circuitry*
%LPD*%
*
*
G04 PC Custom Flashes*
G04 Layer Name WS2378-0815.pcb - flashes*
%LPD*%
*
*
G04 PC Circuitry*
G04 Layer Name WS2378-0815.pcb - circuitry*
%LPD*%
*
G54D11*
G01X1000000Y1549160D02*
X1810283D01*
Y1448819*
X1810283*
Y1401575*
X1810283*
Y1000000*
X1000000*
Y1549160*
X1012600Y885250D02*
X1285200D01*
X1012600Y865250D02*
X1285200D01*
X1012600Y845250D02*
X1285200D01*
X1268200Y865250D02*
Y845250D01*
X1012600Y795050D02*
Y908250D01*
X1285200*
Y795050*
X1012600*
Y826050D02*
X1285100D01*
X1072200Y885250D02*
Y826050D01*
X1220200Y908250D02*
Y845050D01*
X1173600Y795050D02*
Y826050D01*
X1118600Y795050D02*
Y826050D01*
X1239600Y795050D02*
Y826050D01*
X1052600Y795050D02*
Y826050D01*
Y812050D02*
X1285100D01*
X1245482Y875550D02*
Y875800D01*
X1245664Y876300*
X1245845Y876550*
X1246209Y876800*
X1246936*
X1247300Y876550*
X1247482Y876300*
X1247664Y875800*
Y875300*
X1247482Y874800*
X1247118Y874050*
X1245300Y871550*
X1247845*
X1250573Y876800D02*
X1250027Y876550D01*
X1249664Y875800*
X1249482Y874550*
Y873800*
X1249664Y872550*
X1250027Y871800*
X1250573Y871550*
X1250936*
X1251482Y871800*
X1251845Y872550*
X1252027Y873800*
Y874550*
X1251845Y875800*
X1251482Y876550*
X1250936Y876800*
X1250573*
X1253664Y875800D02*
X1254027Y876050D01*
X1254573Y876800*
Y871550*
X1256573Y876800D02*
X1258573D01*
X1257482Y874800*
X1258027*
X1258391Y874550*
X1258573Y874300*
X1258755Y873550*
Y873050*
X1258573Y872300*
X1258209Y871800*
X1257664Y871550*
X1257118*
X1256573Y871800*
X1256391Y872050*
X1256209Y872550*
X1263664Y877800D02*
X1260391Y869800D01*
X1266209Y876800D02*
X1265664Y876550D01*
X1265482Y876050*
Y875550*
X1265664Y875050*
X1266027Y874800*
X1266755Y874550*
X1267300Y874300*
X1267664Y873800*
X1267845Y873300*
Y872550*
X1267664Y872050*
X1267482Y871800*
X1266936Y871550*
X1266209*
X1265664Y871800*
X1265482Y872050*
X1265300Y872550*
Y873300*
X1265482Y873800*
X1265845Y874300*
X1266391Y874550*
X1267118Y874800*
X1267482Y875050*
X1267664Y875550*
Y876050*
X1267482Y876550*
X1266936Y876800*
X1266209*
X1272755Y877800D02*
X1269482Y869800D01*
X1274391Y875800D02*
X1274755Y876050D01*
X1275300Y876800*
Y871550*
X1279118Y876050D02*
X1278936Y876550D01*
X1278391Y876800*
X1278027*
X1277482Y876550*
X1277118Y875800*
X1276936Y874550*
Y873300*
X1277118Y872300*
X1277482Y871800*
X1278027Y871550*
X1278209*
X1278755Y871800*
X1279118Y872300*
X1279300Y873050*
Y873300*
X1279118Y874050*
X1278755Y874550*
X1278209Y874800*
X1278027*
X1277482Y874550*
X1277118Y874050*
X1276936Y873300*
X1081500Y858313D02*
X1082636Y851750D01*
X1083773Y858313D02*
X1082636Y851750D01*
X1083773Y858313D02*
X1084909Y851750D01*
X1086045Y858313D02*
X1084909Y851750D01*
X1091273Y857375D02*
X1090818Y858000D01*
X1090136Y858313*
X1090136D02*
X1089227D01*
X1089227D02*
X1088545Y858000D01*
X1088091Y857375*
Y856750*
X1088318Y856125*
X1088545Y855813*
X1088545D02*
X1089000Y855500D01*
X1090364Y854875*
X1090818Y854563*
X1090818D02*
X1091045Y854250D01*
X1091273Y853625*
Y852688*
X1091273D02*
X1090818Y852063D01*
X1090818D02*
X1090136Y851750D01*
X1089227*
X1088545Y852063*
X1088545D02*
X1088091Y852688D01*
X1093545Y856750D02*
Y857063D01*
X1093545D02*
X1093773Y857688D01*
X1093773D02*
X1094000Y858000D01*
X1094455Y858313*
X1094455D02*
X1095364D01*
X1095364D02*
X1095818Y858000D01*
X1096045Y857688*
X1096045D02*
X1096273Y857063D01*
X1096273D02*
Y856438D01*
X1096273D02*
X1096045Y855813D01*
X1096045D02*
X1095591Y854875D01*
X1093318Y851750*
X1096500*
X1099000Y858313D02*
X1101500D01*
X1101500D02*
X1100136Y855813D01*
X1100136D02*
X1100818D01*
X1100818D02*
X1101273Y855500D01*
X1101500Y855188*
X1101500D02*
X1101727Y854250D01*
Y853625*
X1101500Y852688*
X1101500D02*
X1101045Y852063D01*
X1101045D02*
X1100364Y851750D01*
X1099682*
X1099000Y852063*
X1099000D02*
X1098773Y852375D01*
X1098545Y853000*
X1106955Y858313D02*
X1104682Y851750D01*
X1103773Y858313D02*
X1106955D01*
X1110136D02*
X1109455Y858000D01*
X1109227Y857375*
Y856750*
X1109455Y856125*
X1109909Y855813*
X1109909D02*
X1110818Y855500D01*
X1111500Y855188*
X1111500D02*
X1111955Y854563D01*
X1111955D02*
X1112182Y853938D01*
X1112182D02*
Y853000D01*
X1111955Y852375*
X1111727Y852063*
X1111727D02*
X1111045Y851750D01*
X1110136*
X1109455Y852063*
X1109455D02*
X1109227Y852375D01*
X1109000Y853000*
Y853938*
X1109000D02*
X1109227Y854563D01*
X1109227D02*
X1109682Y855188D01*
X1109682D02*
X1110364Y855500D01*
X1111273Y855813*
X1111273D02*
X1111727Y856125D01*
X1111955Y856750*
Y857375*
X1111727Y858000*
X1111045Y858313*
X1111045D02*
X1110136D01*
X1259000Y805750D02*
Y800500D01*
Y805750D02*
X1261545Y800500D01*
Y805750D02*
Y800500D01*
X1264273Y805750D02*
X1263727Y805500D01*
X1263364Y804750*
X1263182Y803500*
Y802750*
X1263364Y801500*
X1263727Y800750*
X1264273Y800500*
X1264636*
X1265182Y800750*
X1265545Y801500*
X1265727Y802750*
Y803500*
X1265545Y804750*
X1265182Y805500*
X1264636Y805750*
X1264273*
X1152473Y904500D02*
Y899250D01*
X1151200Y904500D02*
X1153745D01*
X1155382D02*
Y899250D01*
Y904500D02*
X1157745D01*
X1155382Y902000D02*
X1156836D01*
X1155382Y899250D02*
X1157745D01*
X1159382Y904500D02*
Y899250D01*
X1161564*
X1163382Y902750D02*
X1163200Y902500D01*
X1163382Y902250*
X1163564Y902500*
X1163382Y902750*
Y899750D02*
X1163200Y899500D01*
X1163382Y899250*
X1163564Y899500*
X1163382Y899750*
X1166473Y905500D02*
X1166109Y905000D01*
X1165745Y904250*
X1165382Y903250*
X1165200Y902000*
Y901000*
X1165382Y899750*
X1165745Y898750*
X1166109Y898000*
X1166473Y897500*
X1169200Y904500D02*
X1168655Y904250D01*
X1168291Y903500*
X1168109Y902250*
Y901500*
X1168291Y900250*
X1168655Y899500*
X1169200Y899250*
X1169564*
X1170109Y899500*
X1170473Y900250*
X1170655Y901500*
Y902250*
X1170473Y903500*
X1170109Y904250*
X1169564Y904500*
X1169200*
X1172655D02*
X1174655D01*
X1173564Y902500*
X1174109*
X1174473Y902250*
X1174655Y902000*
X1174836Y901250*
Y900750*
X1174655Y900000*
X1174291Y899500*
X1173745Y899250*
X1173200*
X1172655Y899500*
X1172473Y899750*
X1172291Y900250*
X1176473Y905500D02*
X1176836Y905000D01*
X1177200Y904250*
X1177564Y903250*
X1177745Y902000*
Y901000*
X1177564Y899750*
X1177200Y898750*
X1176836Y898000*
X1176473Y897500*
X1181745Y904500D02*
X1179927D01*
X1179745Y902250*
X1179927Y902500*
X1180473Y902750*
X1181018*
X1181564Y902500*
X1181927Y902000*
X1182109Y901250*
X1181927Y900750*
X1181745Y900000*
X1181382Y899500*
X1180836Y899250*
X1180291*
X1179745Y899500*
X1179564Y899750*
X1179382Y900250*
X1185927Y903750D02*
X1185745Y904250D01*
X1185200Y904500*
X1184836*
X1184291Y904250*
X1183927Y903500*
X1183745Y902250*
Y901000*
X1183927Y900000*
X1184291Y899500*
X1184836Y899250*
X1185018*
X1185564Y899500*
X1185927Y900000*
X1186109Y900750*
Y901000*
X1185927Y901750*
X1185564Y902250*
X1185018Y902500*
X1184836*
X1184291Y902250*
X1183927Y901750*
X1183745Y901000*
X1188836Y904500D02*
X1188291Y904250D01*
X1187927Y903500*
X1187745Y902250*
Y901500*
X1187927Y900250*
X1188291Y899500*
X1188836Y899250*
X1189200*
X1189745Y899500*
X1190109Y900250*
X1190291Y901500*
Y902250*
X1190109Y903500*
X1189745Y904250*
X1189200Y904500*
X1188836*
X1191927Y901500D02*
X1195200D01*
X1197927Y904500D02*
X1197382Y904250D01*
X1197018Y903500*
X1196836Y902250*
Y901500*
X1197018Y900250*
X1197382Y899500*
X1197927Y899250*
X1198291*
X1198836Y899500*
X1199200Y900250*
X1199382Y901500*
Y902250*
X1199200Y903500*
X1198836Y904250*
X1198291Y904500*
X1197927*
X1201927D02*
X1201382Y904250D01*
X1201200Y903750*
Y903250*
X1201382Y902750*
X1201745Y902500*
X1202473Y902250*
X1203018Y902000*
X1203382Y901500*
X1203564Y901000*
Y900250*
X1203382Y899750*
X1203200Y899500*
X1202655Y899250*
X1201927*
X1201382Y899500*
X1201200Y899750*
X1201018Y900250*
Y901000*
X1201200Y901500*
X1201564Y902000*
X1202109Y902250*
X1202836Y902500*
X1203200Y902750*
X1203382Y903250*
Y903750*
X1203200Y904250*
X1202655Y904500*
X1201927*
X1207382Y903750D02*
X1207200Y904250D01*
X1206655Y904500*
X1206291*
X1205745Y904250*
X1205382Y903500*
X1205200Y902250*
Y901000*
X1205382Y900000*
X1205745Y899500*
X1206291Y899250*
X1206473*
X1207018Y899500*
X1207382Y900000*
X1207564Y900750*
Y901000*
X1207382Y901750*
X1207018Y902250*
X1206473Y902500*
X1206291*
X1205745Y902250*
X1205382Y901750*
X1205200Y901000*
X1210109Y904500D02*
X1209564Y904250D01*
X1209382Y903750*
Y903250*
X1209564Y902750*
X1209927Y902500*
X1210655Y902250*
X1211200Y902000*
X1211564Y901500*
X1211745Y901000*
Y900250*
X1211564Y899750*
X1211382Y899500*
X1210836Y899250*
X1210109*
X1209564Y899500*
X1209382Y899750*
X1209200Y900250*
Y901000*
X1209382Y901500*
X1209745Y902000*
X1210291Y902250*
X1211018Y902500*
X1211382Y902750*
X1211564Y903250*
Y903750*
X1211382Y904250*
X1210836Y904500*
X1210109*
X1223200Y894500D02*
Y889250D01*
Y894500D02*
X1225564D01*
X1223200Y892000D02*
X1224655D01*
X1223200Y889250D02*
X1225564D01*
X1227200Y892750D02*
X1229200Y889250D01*
Y892750D02*
X1227200Y889250D01*
X1231382Y894500D02*
Y890250D01*
X1231564Y889500*
X1231927Y889250*
X1232291*
X1230836Y892750D02*
X1232109D01*
X1234109D02*
X1233927Y892500D01*
X1234109Y892250*
X1234291Y892500*
X1234109Y892750*
Y889750D02*
X1233927Y889500D01*
X1234109Y889250*
X1234291Y889500*
X1234109Y889750*
X1223200Y904500D02*
Y899250D01*
Y904500D02*
X1225564D01*
X1223200Y902000D02*
X1224655D01*
X1223200Y899250D02*
X1225564D01*
X1227200Y902750D02*
Y899250D01*
Y901750D02*
X1227745Y902500D01*
X1228109Y902750*
X1228655*
X1229018Y902500*
X1229200Y901750*
Y899250*
X1233018Y902750D02*
Y898750D01*
X1232836Y898000*
X1232655Y897750*
X1232291Y897500*
X1231745*
X1231382Y897750*
X1233018Y902000D02*
X1232655Y902500D01*
X1232291Y902750*
X1231745*
X1231382Y902500*
X1231018Y902000*
X1230836Y901250*
Y900750*
X1231018Y900000*
X1231382Y899500*
X1231745Y899250*
X1232291*
X1232655Y899500*
X1233018Y900000*
X1234836Y902750D02*
X1234655Y902500D01*
X1234836Y902250*
X1235018Y902500*
X1234836Y902750*
Y899750D02*
X1234655Y899500D01*
X1234836Y899250*
X1235018Y899500*
X1234836Y899750*
X1227200Y857500D02*
Y852250D01*
X1229382*
X1232473Y857500D02*
X1231018Y852250D01*
X1232473Y857500D02*
X1233927Y852250D01*
X1231564Y854000D02*
X1233382D01*
X1235564Y857500D02*
X1237018Y855000D01*
Y852250*
X1238473Y857500D02*
X1237018Y855000D01*
X1240109Y857500D02*
Y852250D01*
Y857500D02*
X1242473D01*
X1240109Y855000D02*
X1241564D01*
X1240109Y852250D02*
X1242473D01*
X1244109Y857500D02*
Y852250D01*
Y857500D02*
X1245745D01*
X1246291Y857250*
X1246473Y857000*
X1246655Y856500*
Y856000*
X1246473Y855500*
X1246291Y855250*
X1245745Y855000*
X1244109*
X1245382D02*
X1246655Y852250D01*
X1250836Y856750D02*
X1250473Y857250D01*
X1249927Y857500*
X1249200*
X1248655Y857250*
X1248291Y856750*
Y856250*
X1248473Y855750*
X1248655Y855500*
X1249018Y855250*
X1250109Y854750*
X1250473Y854500*
X1250655Y854250*
X1250836Y853750*
Y853000*
X1250473Y852500*
X1249927Y852250*
X1249200*
X1248655Y852500*
X1248291Y853000*
X1017200Y837813D02*
Y831250D01*
X1019927*
X1023791Y837813D02*
X1021973Y831250D01*
X1023791Y837813D02*
X1025609Y831250D01*
X1022655Y833438D02*
X1024927D01*
X1027655Y837813D02*
X1029473Y834688D01*
X1029473D02*
Y831250D01*
X1031291Y837813D02*
X1029473Y834688D01*
X1033336Y837813D02*
Y831250D01*
Y837813D02*
X1036291D01*
X1033336Y834688D02*
X1035155D01*
X1033336Y831250D02*
X1036291D01*
X1038336Y837813D02*
Y831250D01*
Y837813D02*
X1040382D01*
X1040382D02*
X1041064Y837500D01*
X1041291Y837188*
X1041291D02*
X1041518Y836563D01*
X1041518D02*
Y835938D01*
X1041518D02*
X1041291Y835313D01*
X1041291D02*
X1041064Y835000D01*
X1040382Y834688*
X1040382D02*
X1038336D01*
X1039927D02*
X1041518Y831250D01*
X1017200Y858813D02*
Y852250D01*
Y858813D02*
X1019018Y852250D01*
X1020836Y858813D02*
X1019018Y852250D01*
X1020836Y858813D02*
Y852250D01*
X1024245Y858813D02*
X1023791Y858500D01*
X1023336Y857875*
X1023109Y857250*
X1022882Y856313*
X1022882D02*
Y854750D01*
X1023109Y853813*
X1023109D02*
X1023336Y853188D01*
X1023336D02*
X1023791Y852563D01*
X1023791D02*
X1024245Y852250D01*
X1025155*
X1025609Y852563*
X1025609D02*
X1026064Y853188D01*
X1026064D02*
X1026291Y853813D01*
X1026291D02*
X1026518Y854750D01*
Y856313*
X1026518D02*
X1026291Y857250D01*
X1026064Y857875*
X1025609Y858500*
X1025155Y858813*
X1025155D02*
X1024245D01*
X1028564D02*
Y852250D01*
Y858813D02*
X1030155D01*
X1030155D02*
X1030836Y858500D01*
X1031291Y857875*
X1031518Y857250*
X1031745Y856313*
X1031745D02*
Y854750D01*
X1031518Y853813*
X1031518D02*
X1031291Y853188D01*
X1031291D02*
X1030836Y852563D01*
X1030836D02*
X1030155Y852250D01*
X1028564*
X1033791Y858813D02*
Y852250D01*
Y858813D02*
X1036745D01*
X1033791Y855688D02*
X1035609D01*
X1033791Y852250D02*
X1036745D01*
X1038791Y858813D02*
Y852250D01*
X1041518*
X1048791Y858813D02*
Y852250D01*
Y858813D02*
X1051973Y852250D01*
Y858813D02*
Y852250D01*
X1055382Y858813D02*
X1054927Y858500D01*
X1054473Y857875*
X1054245Y857250*
X1054018Y856313*
X1054018D02*
Y854750D01*
X1054245Y853813*
X1054245D02*
X1054473Y853188D01*
X1054473D02*
X1054927Y852563D01*
X1054927D02*
X1055382Y852250D01*
X1056291*
X1056745Y852563*
X1056745D02*
X1057200Y853188D01*
X1057200D02*
X1057427Y853813D01*
X1057427D02*
X1057655Y854750D01*
Y856313*
X1057655D02*
X1057427Y857250D01*
X1057200Y857875*
X1056745Y858500*
X1056291Y858813*
X1056291D02*
X1055382D01*
X1059927Y852875D02*
X1059700Y852563D01*
X1059700D02*
X1059927Y852250D01*
X1060155Y852563*
X1060155D02*
X1059927Y852875D01*
X1016200Y878813D02*
Y872250D01*
Y878813D02*
X1018018Y872250D01*
X1019836Y878813D02*
X1018018Y872250D01*
X1019836Y878813D02*
Y872250D01*
X1023245Y878813D02*
X1022791Y878500D01*
X1022336Y877875*
X1022109Y877250*
X1021882Y876313*
X1021882D02*
Y874750D01*
X1022109Y873813*
X1022109D02*
X1022336Y873188D01*
X1022336D02*
X1022791Y872563D01*
X1022791D02*
X1023245Y872250D01*
X1024155*
X1024609Y872563*
X1024609D02*
X1025064Y873188D01*
X1025064D02*
X1025291Y873813D01*
X1025291D02*
X1025518Y874750D01*
Y876313*
X1025518D02*
X1025291Y877250D01*
X1025064Y877875*
X1024609Y878500*
X1024155Y878813*
X1024155D02*
X1023245D01*
X1027564D02*
Y872250D01*
Y878813D02*
X1029155D01*
X1029155D02*
X1029836Y878500D01*
X1030291Y877875*
X1030518Y877250*
X1030745Y876313*
X1030745D02*
Y874750D01*
X1030518Y873813*
X1030518D02*
X1030291Y873188D01*
X1030291D02*
X1029836Y872563D01*
X1029836D02*
X1029155Y872250D01*
X1027564*
X1032791Y878813D02*
Y872250D01*
Y878813D02*
X1035745D01*
X1032791Y875688D02*
X1034609D01*
X1032791Y872250D02*
X1035745D01*
X1037791Y878813D02*
Y872250D01*
X1040518*
X1047791Y878813D02*
Y872250D01*
Y878813D02*
X1050973Y872250D01*
Y878813D02*
Y872250D01*
X1054836Y878813D02*
X1053018Y872250D01*
X1054836Y878813D02*
X1056655Y872250D01*
X1053700Y874438D02*
X1055973D01*
X1058700Y878813D02*
Y872250D01*
Y878813D02*
X1060518Y872250D01*
X1062336Y878813D02*
X1060518Y872250D01*
X1062336Y878813D02*
Y872250D01*
X1064382Y878813D02*
Y872250D01*
Y878813D02*
X1067336D01*
X1064382Y875688D02*
X1066200D01*
X1064382Y872250D02*
X1067336D01*
X1150200Y894500D02*
Y889250D01*
Y894500D02*
X1152564D01*
X1150200Y892000D02*
X1151655D01*
X1155655Y894500D02*
X1154200Y889250D01*
X1155655Y894500D02*
X1157109Y889250D01*
X1154745Y891000D02*
X1156564D01*
X1158745Y894500D02*
X1161291Y889250D01*
Y894500D02*
X1158745Y889250D01*
X1163109Y892750D02*
X1162927Y892500D01*
X1163109Y892250*
X1163291Y892500*
X1163109Y892750*
Y889750D02*
X1162927Y889500D01*
X1163109Y889250*
X1163291Y889500*
X1163109Y889750*
X1166200Y895500D02*
X1165836Y895000D01*
X1165473Y894250*
X1165109Y893250*
X1164927Y892000*
Y891000*
X1165109Y889750*
X1165473Y888750*
X1165836Y888000*
X1166200Y887500*
X1168927Y894500D02*
X1168382Y894250D01*
X1168018Y893500*
X1167836Y892250*
Y891500*
X1168018Y890250*
X1168382Y889500*
X1168927Y889250*
X1169291*
X1169836Y889500*
X1170200Y890250*
X1170382Y891500*
Y892250*
X1170200Y893500*
X1169836Y894250*
X1169291Y894500*
X1168927*
X1172382D02*
X1174382D01*
X1173291Y892500*
X1173836*
X1174200Y892250*
X1174382Y892000*
X1174564Y891250*
Y890750*
X1174382Y890000*
X1174018Y889500*
X1173473Y889250*
X1172927*
X1172382Y889500*
X1172200Y889750*
X1172018Y890250*
X1176200Y895500D02*
X1176564Y895000D01*
X1176927Y894250*
X1177291Y893250*
X1177473Y892000*
Y891000*
X1177291Y889750*
X1176927Y888750*
X1176564Y888000*
X1176200Y887500*
X1181473Y894500D02*
X1179655D01*
X1179473Y892250*
X1179655Y892500*
X1180200Y892750*
X1180745*
X1181291Y892500*
X1181655Y892000*
X1181836Y891250*
X1181655Y890750*
X1181473Y890000*
X1181109Y889500*
X1180564Y889250*
X1180018*
X1179473Y889500*
X1179291Y889750*
X1179109Y890250*
X1185655Y893750D02*
X1185473Y894250D01*
X1184927Y894500*
X1184564*
X1184018Y894250*
X1183655Y893500*
X1183473Y892250*
Y891000*
X1183655Y890000*
X1184018Y889500*
X1184564Y889250*
X1184745*
X1185291Y889500*
X1185655Y890000*
X1185836Y890750*
Y891000*
X1185655Y891750*
X1185291Y892250*
X1184745Y892500*
X1184564*
X1184018Y892250*
X1183655Y891750*
X1183473Y891000*
X1188564Y894500D02*
X1188018Y894250D01*
X1187655Y893500*
X1187473Y892250*
Y891500*
X1187655Y890250*
X1188018Y889500*
X1188564Y889250*
X1188927*
X1189473Y889500*
X1189836Y890250*
X1190018Y891500*
Y892250*
X1189836Y893500*
X1189473Y894250*
X1188927Y894500*
X1188564*
X1191655Y891500D02*
X1194927D01*
X1197655Y894500D02*
X1197109Y894250D01*
X1196745Y893500*
X1196564Y892250*
Y891500*
X1196745Y890250*
X1197109Y889500*
X1197655Y889250*
X1198018*
X1198564Y889500*
X1198927Y890250*
X1199109Y891500*
Y892250*
X1198927Y893500*
X1198564Y894250*
X1198018Y894500*
X1197655*
X1201655D02*
X1201109Y894250D01*
X1200927Y893750*
Y893250*
X1201109Y892750*
X1201473Y892500*
X1202200Y892250*
X1202745Y892000*
X1203109Y891500*
X1203291Y891000*
Y890250*
X1203109Y889750*
X1202927Y889500*
X1202382Y889250*
X1201655*
X1201109Y889500*
X1200927Y889750*
X1200745Y890250*
Y891000*
X1200927Y891500*
X1201291Y892000*
X1201836Y892250*
X1202564Y892500*
X1202927Y892750*
X1203109Y893250*
Y893750*
X1202927Y894250*
X1202382Y894500*
X1201655*
X1204927Y893500D02*
X1205291Y893750D01*
X1205836Y894500*
Y889250*
X1208382Y894500D02*
X1207836Y894250D01*
X1207655Y893750*
Y893250*
X1207836Y892750*
X1208200Y892500*
X1208927Y892250*
X1209473Y892000*
X1209836Y891500*
X1210018Y891000*
Y890250*
X1209836Y889750*
X1209655Y889500*
X1209109Y889250*
X1208382*
X1207836Y889500*
X1207655Y889750*
X1207473Y890250*
Y891000*
X1207655Y891500*
X1208018Y892000*
X1208564Y892250*
X1209291Y892500*
X1209655Y892750*
X1209836Y893250*
Y893750*
X1209655Y894250*
X1209109Y894500*
X1208382*
X1223600Y877300D02*
Y872050D01*
Y877300D02*
X1224873D01*
X1225418Y877050*
X1225782Y876550*
X1225964Y876050*
X1226145Y875300*
Y874050*
X1225964Y873300*
X1225782Y872800*
X1225418Y872300*
X1224873Y872050*
X1223600*
X1229964Y875550D02*
Y872050D01*
Y874800D02*
X1229600Y875300D01*
X1229236Y875550*
X1228691*
X1228327Y875300*
X1227964Y874800*
X1227782Y874050*
Y873550*
X1227964Y872800*
X1228327Y872300*
X1228691Y872050*
X1229236*
X1229600Y872300*
X1229964Y872800*
X1232145Y877300D02*
Y873050D01*
X1232327Y872300*
X1232691Y872050*
X1233055*
X1231600Y875550D02*
X1232873D01*
X1234691Y874050D02*
X1236873D01*
Y874550*
X1236691Y875050*
X1236509Y875300*
X1236145Y875550*
X1235600*
X1235236Y875300*
X1234873Y874800*
X1234691Y874050*
Y873550*
X1234873Y872800*
X1235236Y872300*
X1235600Y872050*
X1236145*
X1236509Y872300*
X1236873Y872800*
X1238691Y875550D02*
X1238509Y875300D01*
X1238691Y875050*
X1238873Y875300*
X1238691Y875550*
Y872550D02*
X1238509Y872300D01*
X1238691Y872050*
X1238873Y872300*
X1238691Y872550*
X1276473Y858813D02*
X1274200Y854438D01*
X1274200D02*
X1277609D01*
X1276473Y858813D02*
Y852250D01*
X1016600Y813300D02*
X1018055Y808050D01*
X1019509Y813300D02*
X1018055Y808050D01*
X1021145Y813300D02*
X1021327Y813050D01*
X1021509Y813300*
X1021327Y813550*
X1021145Y813300*
X1021327Y811550D02*
Y808050D01*
X1025327Y811550D02*
Y808050D01*
Y810800D02*
X1024964Y811300D01*
X1024600Y811550*
X1024055*
X1023691Y811300*
X1023327Y810800*
X1023145Y810050*
Y809550*
X1023327Y808800*
X1023691Y808300*
X1024055Y808050*
X1024600*
X1024964Y808300*
X1025327Y808800*
X1032418Y813300D02*
Y808050D01*
X1031145Y813300D02*
X1033691D01*
X1035509Y811550D02*
X1036600Y808050D01*
X1037691Y811550D02*
X1036600Y808050D01*
X1036236Y807050*
X1035873Y806550*
X1035509Y806300*
X1035327*
X1039327Y811550D02*
Y806300D01*
Y810800D02*
X1039691Y811300D01*
X1040055Y811550*
X1040600*
X1040964Y811300*
X1041327Y810800*
X1041509Y810050*
Y809550*
X1041327Y808800*
X1040964Y808300*
X1040600Y808050*
X1040055*
X1039691Y808300*
X1039327Y808800*
X1043145Y810050D02*
X1045327D01*
Y810550*
X1045145Y811050*
X1044964Y811300*
X1044600Y811550*
X1044055*
X1043691Y811300*
X1043327Y810800*
X1043145Y810050*
Y809550*
X1043327Y808800*
X1043691Y808300*
X1044055Y808050*
X1044600*
X1044964Y808300*
X1045327Y808800*
X1047145Y811550D02*
X1046964Y811300D01*
X1047145Y811050*
X1047327Y811300*
X1047145Y811550*
Y808550D02*
X1046964Y808300D01*
X1047145Y808050*
X1047327Y808300*
X1047145Y808550*
X1058373Y821300D02*
Y816050D01*
X1057100Y821300D02*
X1059645D01*
X1061282D02*
Y816050D01*
Y818550D02*
X1061827Y819300D01*
X1062191Y819550*
X1062736*
X1063100Y819300*
X1063282Y818550*
Y816050*
X1064918Y819550D02*
Y816050D01*
Y818050D02*
X1065100Y818800D01*
X1065464Y819300*
X1065827Y819550*
X1066373*
X1068918D02*
X1068555Y819300D01*
X1068191Y818800*
X1068009Y818050*
Y817550*
X1068191Y816800*
X1068555Y816300*
X1068918Y816050*
X1069464*
X1069827Y816300*
X1070191Y816800*
X1070373Y817550*
Y818050*
X1070191Y818800*
X1069827Y819300*
X1069464Y819550*
X1068918*
X1072009D02*
Y817050D01*
X1072191Y816300*
X1072555Y816050*
X1073100*
X1073464Y816300*
X1074009Y817050*
Y819550D02*
Y816050D01*
X1077827Y819550D02*
Y815550D01*
X1077645Y814800*
X1077464Y814550*
X1077100Y814300*
X1076555*
X1076191Y814550*
X1077827Y818800D02*
X1077464Y819300D01*
X1077100Y819550*
X1076555*
X1076191Y819300*
X1075827Y818800*
X1075645Y818050*
Y817550*
X1075827Y816800*
X1076191Y816300*
X1076555Y816050*
X1077100*
X1077464Y816300*
X1077827Y816800*
X1079464Y821300D02*
Y816050D01*
Y818550D02*
X1080009Y819300D01*
X1080373Y819550*
X1080918*
X1081282Y819300*
X1081464Y818550*
Y816050*
X1087282Y821300D02*
Y816050D01*
X1089827Y821300D02*
Y816050D01*
X1087282Y818800D02*
X1089827D01*
X1092373Y819550D02*
X1092009Y819300D01*
X1091645Y818800*
X1091464Y818050*
Y817550*
X1091645Y816800*
X1092009Y816300*
X1092373Y816050*
X1092918*
X1093282Y816300*
X1093645Y816800*
X1093827Y817550*
Y818050*
X1093645Y818800*
X1093282Y819300*
X1092918Y819550*
X1092373*
X1095464Y821300D02*
Y816050D01*
X1097100Y818050D02*
X1099282D01*
Y818550*
X1099100Y819050*
X1098918Y819300*
X1098555Y819550*
X1098009*
X1097645Y819300*
X1097282Y818800*
X1097100Y818050*
Y817550*
X1097282Y816800*
X1097645Y816300*
X1098009Y816050*
X1098555*
X1098918Y816300*
X1099282Y816800*
X1105100Y821300D02*
X1106555Y816050D01*
X1108009Y821300D02*
X1106555Y816050D01*
X1109645Y821300D02*
X1109827Y821050D01*
X1110009Y821300*
X1109827Y821550*
X1109645Y821300*
X1109827Y819550D02*
Y816050D01*
X1113827Y819550D02*
Y816050D01*
Y818800D02*
X1113464Y819300D01*
X1113100Y819550*
X1112555*
X1112191Y819300*
X1111827Y818800*
X1111645Y818050*
Y817550*
X1111827Y816800*
X1112191Y816300*
X1112555Y816050*
X1113100*
X1113464Y816300*
X1113827Y816800*
X1123100Y821300D02*
Y816050D01*
Y821300D02*
X1124736D01*
X1125282Y821050*
X1125464Y820800*
X1125645Y820300*
Y819550*
X1125464Y819050*
X1125282Y818800*
X1124736Y818550*
X1123100*
X1127282Y821300D02*
Y816050D01*
X1128918Y819550D02*
Y817050D01*
X1129100Y816300*
X1129464Y816050*
X1130009*
X1130373Y816300*
X1130918Y817050*
Y819550D02*
Y816050D01*
X1134736Y819550D02*
Y815550D01*
X1134555Y814800*
X1134373Y814550*
X1134009Y814300*
X1133464*
X1133100Y814550*
X1134736Y818800D02*
X1134373Y819300D01*
X1134009Y819550*
X1133464*
X1133100Y819300*
X1132736Y818800*
X1132555Y818050*
Y817550*
X1132736Y816800*
X1133100Y816300*
X1133464Y816050*
X1134009*
X1134373Y816300*
X1134736Y816800*
X1138555Y819550D02*
Y815550D01*
X1138373Y814800*
X1138191Y814550*
X1137827Y814300*
X1137282*
X1136918Y814550*
X1138555Y818800D02*
X1138191Y819300D01*
X1137827Y819550*
X1137282*
X1136918Y819300*
X1136555Y818800*
X1136373Y818050*
Y817550*
X1136555Y816800*
X1136918Y816300*
X1137282Y816050*
X1137827*
X1138191Y816300*
X1138555Y816800*
X1140191Y821300D02*
X1140373Y821050D01*
X1140555Y821300*
X1140373Y821550*
X1140191Y821300*
X1140373Y819550D02*
Y816050D01*
X1142191Y819550D02*
Y816050D01*
Y818550D02*
X1142736Y819300D01*
X1143100Y819550*
X1143645*
X1144009Y819300*
X1144191Y818550*
Y816050*
X1148009Y819550D02*
Y815550D01*
X1147827Y814800*
X1147645Y814550*
X1147282Y814300*
X1146736*
X1146373Y814550*
X1148009Y818800D02*
X1147645Y819300D01*
X1147282Y819550*
X1146736*
X1146373Y819300*
X1146009Y818800*
X1145827Y818050*
Y817550*
X1146009Y816800*
X1146373Y816300*
X1146736Y816050*
X1147282*
X1147645Y816300*
X1148009Y816800*
X1153827Y821300D02*
Y816050D01*
Y821300D02*
X1155464D01*
X1156009Y821050*
X1156191Y820800*
X1156373Y820300*
Y819800*
X1156191Y819300*
X1156009Y819050*
X1155464Y818800*
X1153827*
X1155100D02*
X1156373Y816050D01*
X1158009Y818050D02*
X1160191D01*
Y818550*
X1160009Y819050*
X1159827Y819300*
X1159464Y819550*
X1158918*
X1158555Y819300*
X1158191Y818800*
X1158009Y818050*
Y817550*
X1158191Y816800*
X1158555Y816300*
X1158918Y816050*
X1159464*
X1159827Y816300*
X1160191Y816800*
X1163827Y818800D02*
X1163645Y819300D01*
X1163100Y819550*
X1162555*
X1162009Y819300*
X1161827Y818800*
X1162009Y818300*
X1162373Y818050*
X1163282Y817800*
X1163645Y817550*
X1163827Y817050*
Y816800*
X1163645Y816300*
X1163100Y816050*
X1162555*
X1162009Y816300*
X1161827Y816800*
X1165464Y821300D02*
X1165645Y821050D01*
X1165827Y821300*
X1165645Y821550*
X1165464Y821300*
X1165645Y819550D02*
Y816050D01*
X1167464Y819550D02*
Y816050D01*
Y818550D02*
X1168009Y819300D01*
X1168373Y819550*
X1168918*
X1169282Y819300*
X1169464Y818550*
Y816050*
X1193100Y821300D02*
Y816050D01*
Y821300D02*
X1194736D01*
X1195282Y821050*
X1195464Y820800*
X1195645Y820300*
Y819800*
X1195464Y819300*
X1195282Y819050*
X1194736Y818800*
X1193100D02*
X1194736D01*
X1195282Y818550*
X1195464Y818300*
X1195645Y817800*
Y817050*
X1195464Y816550*
X1195282Y816300*
X1194736Y816050*
X1193100*
X1197282Y821300D02*
Y816050D01*
X1198918Y821300D02*
X1199100Y821050D01*
X1199282Y821300*
X1199100Y821550*
X1198918Y821300*
X1199100Y819550D02*
Y816050D01*
X1200918Y819550D02*
Y816050D01*
Y818550D02*
X1201464Y819300D01*
X1201827Y819550*
X1202373*
X1202736Y819300*
X1202918Y818550*
Y816050*
X1206736Y821300D02*
Y816050D01*
Y818800D02*
X1206373Y819300D01*
X1206009Y819550*
X1205464*
X1205100Y819300*
X1204736Y818800*
X1204555Y818050*
Y817550*
X1204736Y816800*
X1205100Y816300*
X1205464Y816050*
X1206009*
X1206373Y816300*
X1206736Y816800*
X1212555Y821300D02*
X1214009Y816050D01*
X1215464Y821300D02*
X1214009Y816050D01*
X1217100Y821300D02*
X1217282Y821050D01*
X1217464Y821300*
X1217282Y821550*
X1217100Y821300*
X1217282Y819550D02*
Y816050D01*
X1221282Y819550D02*
Y816050D01*
Y818800D02*
X1220918Y819300D01*
X1220555Y819550*
X1220009*
X1219645Y819300*
X1219282Y818800*
X1219100Y818050*
Y817550*
X1219282Y816800*
X1219645Y816300*
X1220009Y816050*
X1220555*
X1220918Y816300*
X1221282Y816800*
X1246100Y821300D02*
Y816050D01*
Y821300D02*
X1247736D01*
X1248282Y821050*
X1248464Y820800*
X1248645Y820300*
Y819800*
X1248464Y819300*
X1248282Y819050*
X1247736Y818800*
X1246100D02*
X1247736D01*
X1248282Y818550*
X1248464Y818300*
X1248645Y817800*
Y817050*
X1248464Y816550*
X1248282Y816300*
X1247736Y816050*
X1246100*
X1250282Y819550D02*
Y817050D01*
X1250464Y816300*
X1250827Y816050*
X1251373*
X1251736Y816300*
X1252282Y817050*
Y819550D02*
Y816050D01*
X1253918Y819550D02*
Y816050D01*
Y818050D02*
X1254100Y818800D01*
X1254464Y819300*
X1254827Y819550*
X1255373*
X1257009Y821300D02*
X1257191Y821050D01*
X1257373Y821300*
X1257191Y821550*
X1257009Y821300*
X1257191Y819550D02*
Y816050D01*
X1259009Y818050D02*
X1261191D01*
Y818550*
X1261009Y819050*
X1260827Y819300*
X1260464Y819550*
X1259918*
X1259555Y819300*
X1259191Y818800*
X1259009Y818050*
Y817550*
X1259191Y816800*
X1259555Y816300*
X1259918Y816050*
X1260464*
X1260827Y816300*
X1261191Y816800*
X1265009Y821300D02*
Y816050D01*
Y818800D02*
X1264645Y819300D01*
X1264282Y819550*
X1263736*
X1263373Y819300*
X1263009Y818800*
X1262827Y818050*
Y817550*
X1263009Y816800*
X1263373Y816300*
X1263736Y816050*
X1264282*
X1264645Y816300*
X1265009Y816800*
X1270827Y821300D02*
X1272282Y816050D01*
X1273736Y821300D02*
X1272282Y816050D01*
X1275373Y821300D02*
X1275555Y821050D01*
X1275736Y821300*
X1275555Y821550*
X1275373Y821300*
X1275555Y819550D02*
Y816050D01*
X1279555Y819550D02*
Y816050D01*
Y818800D02*
X1279191Y819300D01*
X1278827Y819550*
X1278282*
X1277918Y819300*
X1277555Y818800*
X1277373Y818050*
Y817550*
X1277555Y816800*
X1277918Y816300*
X1278282Y816050*
X1278827*
X1279191Y816300*
X1279555Y816800*
X1078100Y805800D02*
X1079555Y803300D01*
Y800550*
X1081009Y805800D02*
X1079555Y803300D01*
X1082645Y802550D02*
X1084827D01*
Y803050*
X1084645Y803550*
X1084464Y803800*
X1084100Y804050*
X1083555*
X1083191Y803800*
X1082827Y803300*
X1082645Y802550*
Y802050*
X1082827Y801300*
X1083191Y800800*
X1083555Y800550*
X1084100*
X1084464Y800800*
X1084827Y801300*
X1088464Y803300D02*
X1088282Y803800D01*
X1087736Y804050*
X1087191*
X1086645Y803800*
X1086464Y803300*
X1086645Y802800*
X1087009Y802550*
X1087918Y802300*
X1088282Y802050*
X1088464Y801550*
Y801300*
X1088282Y800800*
X1087736Y800550*
X1087191*
X1086645Y800800*
X1086464Y801300*
X1140100Y805800D02*
Y800550D01*
Y805800D02*
X1142645Y800550D01*
Y805800D02*
Y800550D01*
X1145191Y804050D02*
X1144827Y803800D01*
X1144464Y803300*
X1144282Y802550*
Y802050*
X1144464Y801300*
X1144827Y800800*
X1145191Y800550*
X1145736*
X1146100Y800800*
X1146464Y801300*
X1146645Y802050*
Y802550*
X1146464Y803300*
X1146100Y803800*
X1145736Y804050*
X1145191*
X1204900Y805750D02*
Y800500D01*
Y805750D02*
X1207445Y800500D01*
Y805750D02*
Y800500D01*
X1209991Y804000D02*
X1209627Y803750D01*
X1209264Y803250*
X1209082Y802500*
Y802000*
X1209264Y801250*
X1209627Y800750*
X1209991Y800500*
X1210536*
X1210900Y800750*
X1211264Y801250*
X1211445Y802000*
Y802500*
X1211264Y803250*
X1210900Y803750*
X1210536Y804000*
X1209991*
X1161918Y838175D02*
X1162373Y838800D01*
X1163055Y839113*
X1163055D02*
X1163964D01*
X1163964D02*
X1164645Y838800D01*
X1165100Y838175*
Y837550*
X1164873Y836925*
X1164645Y836613*
X1164645D02*
X1164191Y836300D01*
X1162827Y835675*
X1162373Y835363*
X1162373D02*
X1162145Y835050D01*
X1161918Y834425*
Y833488*
X1161918D02*
X1162373Y832863D01*
X1162373D02*
X1163055Y832550D01*
X1163964*
X1164645Y832863*
X1164645D02*
X1165100Y833488D01*
X1159873Y839113D02*
Y832550D01*
Y839113D02*
X1158055Y832550D01*
X1156236Y839113D02*
X1158055Y832550D01*
X1156236Y839113D02*
Y832550D01*
X1154191Y839113D02*
Y832550D01*
Y839113D02*
X1152600D01*
X1152600D02*
X1151918Y838800D01*
X1151464Y838175*
X1151236Y837550*
X1151009Y836613*
X1151009D02*
Y835050D01*
X1151236Y834113*
X1151236D02*
X1151464Y833488D01*
X1151464D02*
X1151918Y832863D01*
X1151918D02*
X1152600Y832550D01*
X1154191*
X1143736Y839113D02*
Y832550D01*
Y839113D02*
X1141691D01*
X1141691D02*
X1141009Y838800D01*
X1140782Y838488*
X1140782D02*
X1140555Y837863D01*
X1140555D02*
Y836925D01*
X1140782Y836300*
X1141009Y835988*
X1141009D02*
X1141691Y835675D01*
X1143736*
X1136691Y839113D02*
X1138509Y832550D01*
X1136691Y839113D02*
X1134873Y832550D01*
X1137827Y834738D02*
X1135555D01*
X1129645Y838175D02*
X1130100Y838800D01*
X1130782Y839113*
X1130782D02*
X1131691D01*
X1131691D02*
X1132373Y838800D01*
X1132827Y838175*
Y837550*
X1132600Y836925*
X1132373Y836613*
X1132373D02*
X1131918Y836300D01*
X1130555Y835675*
X1130100Y835363*
X1130100D02*
X1129873Y835050D01*
X1129645Y834425*
Y833488*
X1129645D02*
X1130100Y832863D01*
X1130100D02*
X1130782Y832550D01*
X1131691*
X1132373Y832863*
X1132373D02*
X1132827Y833488D01*
X1126009Y839113D02*
Y832550D01*
X1127600Y839113D02*
X1124418D01*
X1122373D02*
Y832550D01*
Y839113D02*
X1119418D01*
X1122373Y835988D02*
X1120555D01*
X1122373Y832550D02*
X1119418D01*
X1112145Y839113D02*
Y832550D01*
Y839113D02*
X1110100D01*
X1110100D02*
X1109418Y838800D01*
X1109191Y838488*
X1109191D02*
X1108964Y837863D01*
X1108964D02*
Y837238D01*
X1108964D02*
X1109191Y836613D01*
X1109191D02*
X1109418Y836300D01*
X1110100Y835988*
X1112145D02*
X1110100D01*
X1110100D02*
X1109418Y835675D01*
X1109191Y835363*
X1109191D02*
X1108964Y834738D01*
X1108964D02*
Y833800D01*
X1109191Y833175*
X1109418Y832863*
X1109418D02*
X1110100Y832550D01*
X1112145*
X1105782Y836925D02*
X1106236Y836613D01*
X1106236D02*
X1106691Y835988D01*
X1106691D02*
X1106918Y835050D01*
Y834425*
X1106691Y833488*
X1106691D02*
X1106236Y832863D01*
X1106236D02*
X1105782Y832550D01*
X1105100*
X1104645Y832863*
X1104645D02*
X1104191Y833488D01*
X1104191D02*
X1103964Y834425D01*
Y835050*
X1104191Y835988*
X1104191D02*
X1104645Y836613D01*
X1104645D02*
X1105100Y836925D01*
X1105782*
X1101236Y839113D02*
Y833800D01*
X1101009Y832863*
X1101009D02*
X1100555Y832550D01*
X1100100*
X1101918Y836925D02*
X1100327D01*
X1097373Y839113D02*
Y833800D01*
X1097145Y832863*
X1097145D02*
X1096691Y832550D01*
X1096236*
X1098055Y836925D02*
X1096464D01*
X1093055D02*
X1093509Y836613D01*
X1093509D02*
X1093964Y835988D01*
X1093964D02*
X1094191Y835050D01*
Y834425*
X1093964Y833488*
X1093964D02*
X1093509Y832863D01*
X1093509D02*
X1093055Y832550D01*
X1092373*
X1091918Y832863*
X1091918D02*
X1091464Y833488D01*
X1091464D02*
X1091236Y834425D01*
Y835050*
X1091464Y835988*
X1091464D02*
X1091918Y836613D01*
X1091918D02*
X1092373Y836925D01*
X1093055*
X1089191D02*
Y832550D01*
Y835675D02*
X1088509Y836613D01*
X1088509D02*
X1088055Y836925D01*
X1087373*
X1086918Y836613*
X1086918D02*
X1086691Y835675D01*
Y832550*
Y835675D02*
X1086009Y836613D01*
X1086009D02*
X1085555Y836925D01*
X1084873*
X1084418Y836613*
X1084418D02*
X1084191Y835675D01*
Y832550*
G54D12*
X1076300Y871725D02*
X1079573D01*
X1083391Y874425D02*
Y869700D01*
Y872175D02*
X1083027Y872625D01*
X1082664Y872850*
X1082118*
X1081755Y872625*
X1081391Y872175*
X1081209Y871500*
Y871050*
X1081391Y870375*
X1081755Y869925*
X1082118Y869700*
X1082664*
X1083027Y869925*
X1083391Y870375*
X1085027Y872850D02*
Y870600D01*
X1085209Y869925*
X1085573Y869700*
X1086118*
X1086482Y869925*
X1087027Y870600*
Y872850D02*
Y869700D01*
X1090845Y872850D02*
Y869700D01*
Y872175D02*
X1090482Y872625D01*
X1090118Y872850*
X1089573*
X1089209Y872625*
X1088845Y872175*
X1088664Y871500*
Y871050*
X1088845Y870375*
X1089209Y869925*
X1089573Y869700*
X1090118*
X1090482Y869925*
X1090845Y870375*
X1092482Y874425D02*
Y869700D01*
X1094118Y871725D02*
X1097391D01*
X1101209Y872175D02*
X1100845Y872625D01*
X1100482Y872850*
X1099936*
X1099573Y872625*
X1099209Y872175*
X1099027Y871500*
Y871050*
X1099209Y870375*
X1099573Y869925*
X1099936Y869700*
X1100482*
X1100845Y869925*
X1101209Y870375*
X1103755Y872850D02*
X1103391Y872625D01*
X1103027Y872175*
X1102845Y871500*
Y871050*
X1103027Y870375*
X1103391Y869925*
X1103755Y869700*
X1104300*
X1104664Y869925*
X1105027Y870375*
X1105209Y871050*
Y871500*
X1105027Y872175*
X1104664Y872625*
X1104300Y872850*
X1103755*
X1106845D02*
Y869700D01*
Y871950D02*
X1107391Y872625D01*
X1107755Y872850*
X1108300*
X1108664Y872625*
X1108845Y871950*
Y869700*
X1112664Y872175D02*
X1112300Y872625D01*
X1111936Y872850*
X1111391*
X1111027Y872625*
X1110664Y872175*
X1110482Y871500*
Y871050*
X1110664Y870375*
X1111027Y869925*
X1111391Y869700*
X1111936*
X1112300Y869925*
X1112664Y870375*
X1114300Y872850D02*
Y870600D01*
X1114482Y869925*
X1114845Y869700*
X1115391*
X1115755Y869925*
X1116300Y870600*
Y872850D02*
Y869700D01*
X1117936Y872850D02*
Y869700D01*
Y871500D02*
X1118118Y872175D01*
X1118482Y872625*
X1118845Y872850*
X1119391*
X1121027D02*
Y869700D01*
Y871500D02*
X1121209Y872175D01*
X1121573Y872625*
X1121936Y872850*
X1122482*
X1124118Y871500D02*
X1126300D01*
Y871950*
X1126118Y872400*
X1125936Y872625*
X1125573Y872850*
X1125027*
X1124664Y872625*
X1124300Y872175*
X1124118Y871500*
Y871050*
X1124300Y870375*
X1124664Y869925*
X1125027Y869700*
X1125573*
X1125936Y869925*
X1126300Y870375*
X1127936Y872850D02*
Y869700D01*
Y871950D02*
X1128482Y872625D01*
X1128845Y872850*
X1129391*
X1129755Y872625*
X1129936Y871950*
Y869700*
X1132118Y874425D02*
Y870600D01*
X1132300Y869925*
X1132664Y869700*
X1133027*
X1131573Y872850D02*
X1132845D01*
X1134664Y871725D02*
X1137936D01*
X1139573Y874425D02*
Y869700D01*
Y874425D02*
X1140845D01*
X1141391Y874200*
X1141755Y873750*
X1141936Y873300*
X1142118Y872625*
Y871500*
X1141936Y870825*
X1141755Y870375*
X1141391Y869925*
X1140845Y869700*
X1139573*
X1143755Y874425D02*
Y869700D01*
Y874425D02*
X1145027D01*
X1145573Y874200*
X1145936Y873750*
X1146118Y873300*
X1146300Y872625*
Y871500*
X1146118Y870825*
X1145936Y870375*
X1145573Y869925*
X1145027Y869700*
X1143755*
X1147936Y874425D02*
Y869700D01*
Y874425D02*
X1149573D01*
X1150118Y874200*
X1150300Y873975*
X1150482Y873525*
Y873075*
X1150300Y872625*
X1150118Y872400*
X1149573Y872175*
X1147936*
X1149209D02*
X1150482Y869700D01*
X1152482Y874425D02*
X1154482D01*
X1153391Y872625*
X1153936*
X1154300Y872400*
X1154482Y872175*
X1154664Y871500*
Y871050*
X1154482Y870375*
X1154118Y869925*
X1153573Y869700*
X1153027*
X1152482Y869925*
X1152300Y870150*
X1152118Y870600*
X1077314Y882560D02*
X1075860Y877310D01*
X1077314Y882560D02*
X1078769Y877310D01*
X1076405Y879060D02*
X1078223D01*
X1080405Y882560D02*
Y877310D01*
Y882560D02*
X1082042D01*
X1082587Y882310*
X1082769Y882060*
X1082951Y881560*
Y880810*
X1082769Y880310*
X1082587Y880060*
X1082042Y879810*
X1080405*
X1084587Y879560D02*
X1087860D01*
X1089496Y882560D02*
Y877310D01*
Y882560D02*
X1090951Y877310D01*
X1092405Y882560D02*
X1090951Y877310D01*
X1092405Y882560D02*
Y877310D01*
X1095314Y882560D02*
Y877310D01*
X1094042Y882560D02*
X1096587D01*
X1100769D02*
X1098951Y877310D01*
X1098223Y882560D02*
X1100769D01*
X1104587Y881810D02*
X1104405Y882310D01*
X1103860Y882560*
X1103496*
X1102951Y882310*
X1102587Y881560*
X1102405Y880310*
Y879060*
X1102587Y878060*
X1102951Y877560*
X1103496Y877310*
X1103678*
X1104223Y877560*
X1104587Y878060*
X1104769Y878810*
Y879060*
X1104587Y879810*
X1104223Y880310*
X1103678Y880560*
X1103496*
X1102951Y880310*
X1102587Y879810*
X1102405Y879060*
X1106587Y881310D02*
Y881560D01*
X1106769Y882060*
X1106951Y882310*
X1107314Y882560*
X1108042*
X1108405Y882310*
X1108587Y882060*
X1108769Y881560*
Y881060*
X1108587Y880560*
X1108223Y879810*
X1106405Y877310*
X1108951*
X1110587Y881560D02*
X1110951Y881810D01*
X1111496Y882560*
Y877310*
X1114587Y882560D02*
X1113133Y877310D01*
X1114587Y882560D02*
X1116042Y877310D01*
X1113678Y879060D02*
X1115496D01*
X1119314Y881810D02*
Y877310D01*
X1117678Y879560D02*
X1120951D01*
X1122587Y882560D02*
Y877310D01*
Y882560D02*
X1124042Y877310D01*
X1125496Y882560D02*
X1124042Y877310D01*
X1125496Y882560D02*
Y877310D01*
X1128405Y882560D02*
Y877310D01*
X1127133Y882560D02*
X1129678D01*
X1133860D02*
X1132042Y877310D01*
X1131314Y882560D02*
X1133860D01*
X1137678Y881810D02*
X1137496Y882310D01*
X1136951Y882560*
X1136587*
X1136042Y882310*
X1135678Y881560*
X1135496Y880310*
Y879060*
X1135678Y878060*
X1136042Y877560*
X1136587Y877310*
X1136769*
X1137314Y877560*
X1137678Y878060*
X1137860Y878810*
Y879060*
X1137678Y879810*
X1137314Y880310*
X1136769Y880560*
X1136587*
X1136042Y880310*
X1135678Y879810*
X1135496Y879060*
X1139496Y881560D02*
X1139860Y881810D01*
X1140405Y882560*
Y877310*
X1142223Y881310D02*
Y881560D01*
X1142405Y882060*
X1142587Y882310*
X1142951Y882560*
X1143678*
X1144042Y882310*
X1144223Y882060*
X1144405Y881560*
Y881060*
X1144223Y880560*
X1143860Y879810*
X1142042Y877310*
X1144587*
X1146223Y882560D02*
Y877310D01*
Y882560D02*
X1148587D01*
X1146223Y880060D02*
X1147678D01*
X1146223Y877310D02*
X1148587D01*
X1151860Y881810D02*
Y877310D01*
X1150223Y879560D02*
X1153496D01*
X1155133Y882560D02*
Y877310D01*
Y882560D02*
X1156587Y877310D01*
X1158042Y882560D02*
X1156587Y877310D01*
X1158042Y882560D02*
Y877310D01*
X1160951Y882560D02*
Y877310D01*
X1159678Y882560D02*
X1162223D01*
X1166405D02*
X1164587Y877310D01*
X1163860Y882560D02*
X1166405D01*
X1170223Y881810D02*
X1170042Y882310D01*
X1169496Y882560*
X1169133*
X1168587Y882310*
X1168223Y881560*
X1168042Y880310*
Y879060*
X1168223Y878060*
X1168587Y877560*
X1169133Y877310*
X1169314*
X1169860Y877560*
X1170223Y878060*
X1170405Y878810*
Y879060*
X1170223Y879810*
X1169860Y880310*
X1169314Y880560*
X1169133*
X1168587Y880310*
X1168223Y879810*
X1168042Y879060*
X1173133Y882560D02*
X1172587Y882310D01*
X1172223Y881560*
X1172042Y880310*
Y879560*
X1172223Y878310*
X1172587Y877560*
X1173133Y877310*
X1173496*
X1174042Y877560*
X1174405Y878310*
X1174587Y879560*
Y880310*
X1174405Y881560*
X1174042Y882310*
X1173496Y882560*
X1173133*
X1176405Y881310D02*
Y881560D01*
X1176587Y882060*
X1176769Y882310*
X1177133Y882560*
X1177860*
X1178223Y882310*
X1178405Y882060*
X1178587Y881560*
Y881060*
X1178405Y880560*
X1178042Y879810*
X1176223Y877310*
X1178769*
X1180405Y882560D02*
Y877310D01*
Y882560D02*
X1182769D01*
X1180405Y880060D02*
X1181860D01*
X1180405Y877310D02*
X1182769D01*
X1184405Y879560D02*
X1187678D01*
X1189314Y882560D02*
X1190769Y877310D01*
X1192223Y882560D02*
X1190769Y877310D01*
X1193860Y881560D02*
X1194223Y881810D01*
X1194769Y882560*
Y877310*
X1196405Y881560D02*
X1196769Y881810D01*
X1197314Y882560*
Y877310*
G54D13*
X1019200Y900438D02*
Y891250D01*
Y900438D02*
X1021745Y891250D01*
X1024291Y900438D02*
X1021745Y891250D01*
X1024291Y900438D02*
Y891250D01*
X1027155Y894750D02*
X1030973D01*
Y895625*
X1030655Y896500*
X1030336Y896938*
X1030336D02*
X1029700Y897375D01*
X1028745*
X1028109Y896938*
X1028109D02*
X1027473Y896063D01*
X1027473D02*
X1027155Y894750D01*
Y893875*
X1027473Y892563*
X1027473D02*
X1028109Y891688D01*
X1028109D02*
X1028745Y891250D01*
X1029700*
X1030336Y891688*
X1030336D02*
X1030973Y892563D01*
X1037655Y900438D02*
Y891250D01*
Y896063D02*
X1037018Y896938D01*
X1037018D02*
X1036382Y897375D01*
X1035427*
X1034791Y896938*
X1034791D02*
X1034155Y896063D01*
X1034155D02*
X1033836Y894750D01*
Y893875*
X1034155Y892563*
X1034155D02*
X1034791Y891688D01*
X1034791D02*
X1035427Y891250D01*
X1036382*
X1037018Y891688*
X1037018D02*
X1037655Y892563D01*
X1040518Y900438D02*
X1040836Y900000D01*
X1041155Y900438*
X1041155D02*
X1040836Y900875D01*
X1040518Y900438*
X1040836Y897375D02*
Y891250D01*
X1047836Y897375D02*
Y891250D01*
Y896063D02*
X1047200Y896938D01*
X1047200D02*
X1046564Y897375D01*
X1045609*
X1044973Y896938*
X1044973D02*
X1044336Y896063D01*
X1044336D02*
X1044018Y894750D01*
Y893875*
X1044336Y892563*
X1044336D02*
X1044973Y891688D01*
X1044973D02*
X1045609Y891250D01*
X1046564*
X1047200Y891688*
X1047200D02*
X1047836Y892563D01*
X1060245Y900438D02*
Y891250D01*
X1058018Y900438D02*
X1062473D01*
X1065336Y894750D02*
X1069155D01*
Y895625*
X1068836Y896500*
X1068518Y896938*
X1068518D02*
X1067882Y897375D01*
X1066927*
X1066291Y896938*
X1066291D02*
X1065655Y896063D01*
X1065655D02*
X1065336Y894750D01*
Y893875*
X1065655Y892563*
X1065655D02*
X1066291Y891688D01*
X1066291D02*
X1066927Y891250D01*
X1067882*
X1068518Y891688*
X1068518D02*
X1069155Y892563D01*
X1072018Y900438D02*
Y891250D01*
X1075200Y897375D02*
X1072018Y893000D01*
X1073291Y894750D02*
X1075518Y891250D01*
X1085700Y900438D02*
Y891250D01*
X1088564Y897375D02*
Y891250D01*
Y895625D02*
X1089518Y896938D01*
X1089518D02*
X1090155Y897375D01*
X1091109*
X1091745Y896938*
X1091745D02*
X1092064Y895625D01*
Y891250*
X1098745Y896063D02*
X1098109Y896938D01*
X1098109D02*
X1097473Y897375D01*
X1096518*
X1095882Y896938*
X1095882D02*
X1095245Y896063D01*
X1095245D02*
X1094927Y894750D01*
Y893875*
X1095245Y892563*
X1095245D02*
X1095882Y891688D01*
X1095882D02*
X1096518Y891250D01*
X1097473*
X1098109Y891688*
X1098109D02*
X1098745Y892563D01*
X1101927Y892125D02*
X1101609Y891688D01*
X1101609D02*
X1101927Y891250D01*
X1102245Y891688*
X1102245D02*
X1101927Y892125D01*
G54D14*
X1264250Y1041207D02*
X1257270D01*
Y1047793*
X1264250*
Y1041207*
X1257500D02*
Y1047793D01*
X1257750Y1041207D02*
Y1047793D01*
X1258000Y1041207D02*
Y1047793D01*
X1258250Y1041207D02*
Y1047793D01*
X1258500Y1041207D02*
Y1047793D01*
X1258750Y1041207D02*
Y1047793D01*
X1259000Y1041207D02*
Y1047793D01*
X1259250Y1041207D02*
Y1047793D01*
X1259500Y1041207D02*
Y1047793D01*
X1259750Y1041207D02*
Y1047793D01*
X1260000Y1041207D02*
Y1047793D01*
X1260250Y1041207D02*
Y1047793D01*
X1260500Y1041207D02*
Y1047793D01*
X1260750Y1041207D02*
Y1047793D01*
X1261000Y1041207D02*
Y1047793D01*
X1261250Y1041207D02*
Y1047793D01*
X1261500Y1041207D02*
Y1047793D01*
X1261750Y1041207D02*
Y1047793D01*
X1262000Y1041207D02*
Y1047793D01*
X1262250Y1041207D02*
Y1047793D01*
X1262500Y1041207D02*
Y1047793D01*
X1262750Y1041207D02*
Y1047793D01*
X1263000Y1041207D02*
Y1047793D01*
X1263250Y1041207D02*
Y1047793D01*
X1263500Y1041207D02*
Y1047793D01*
X1263750Y1041207D02*
Y1047793D01*
X1264000Y1041207D02*
Y1047793D01*
X1271730Y1041207D02*
X1264750D01*
Y1047793*
X1271730*
Y1041207*
X1264750D02*
Y1047793D01*
X1265000Y1041207D02*
Y1047793D01*
X1265250Y1041207D02*
Y1047793D01*
X1265500Y1041207D02*
Y1047793D01*
X1265750Y1041207D02*
Y1047793D01*
X1266000Y1041207D02*
Y1047793D01*
X1266250Y1041207D02*
Y1047793D01*
X1266500Y1041207D02*
Y1047793D01*
X1266750Y1041207D02*
Y1047793D01*
X1267000Y1041207D02*
Y1047793D01*
X1267250Y1041207D02*
Y1047793D01*
X1267500Y1041207D02*
Y1047793D01*
X1267750Y1041207D02*
Y1047793D01*
X1268000Y1041207D02*
Y1047793D01*
X1268250Y1041207D02*
Y1047793D01*
X1268500Y1041207D02*
Y1047793D01*
X1268750Y1041207D02*
Y1047793D01*
X1269000Y1041207D02*
Y1047793D01*
X1269250Y1041207D02*
Y1047793D01*
X1269500Y1041207D02*
Y1047793D01*
X1269750Y1041207D02*
Y1047793D01*
X1270000Y1041207D02*
Y1047793D01*
X1270250Y1041207D02*
Y1047793D01*
X1270500Y1041207D02*
Y1047793D01*
X1270750Y1041207D02*
Y1047793D01*
X1271000Y1041207D02*
Y1047793D01*
X1271250Y1041207D02*
Y1047793D01*
X1271500Y1041207D02*
Y1047793D01*
X1373969Y1543833D02*
X1395969D01*
Y1503833*
X1373969*
Y1543833*
X1374119Y1503833D02*
Y1543833D01*
X1374369Y1503833D02*
Y1543833D01*
X1374619Y1503833D02*
Y1543833D01*
X1374869Y1503833D02*
Y1543833D01*
X1375119Y1503833D02*
Y1543833D01*
X1375369Y1503833D02*
Y1543833D01*
X1375619Y1503833D02*
Y1543833D01*
X1375869Y1503833D02*
Y1543833D01*
X1376119Y1503833D02*
Y1543833D01*
X1376369Y1503833D02*
Y1543833D01*
X1376619Y1503833D02*
Y1543833D01*
X1376869Y1503833D02*
Y1543833D01*
X1377119Y1503833D02*
Y1543833D01*
X1377369Y1503833D02*
Y1543833D01*
X1377619Y1503833D02*
Y1543833D01*
X1377869Y1503833D02*
Y1543833D01*
X1378119Y1503833D02*
Y1543833D01*
X1378369Y1503833D02*
Y1543833D01*
X1378619Y1503833D02*
Y1543833D01*
X1378869Y1503833D02*
Y1543833D01*
X1379119Y1503833D02*
Y1543833D01*
X1379369Y1503833D02*
Y1543833D01*
X1379619Y1503833D02*
Y1543833D01*
X1379869Y1503833D02*
Y1543833D01*
X1380119Y1503833D02*
Y1543833D01*
X1380369Y1503833D02*
Y1543833D01*
X1380619Y1503833D02*
Y1543833D01*
X1380869Y1503833D02*
Y1543833D01*
X1381119Y1503833D02*
Y1543833D01*
X1381369Y1503833D02*
Y1543833D01*
X1381619Y1503833D02*
Y1543833D01*
X1381869Y1503833D02*
Y1543833D01*
X1382119Y1503833D02*
Y1543833D01*
X1382369Y1503833D02*
Y1543833D01*
X1382619Y1503833D02*
Y1543833D01*
X1382869Y1503833D02*
Y1543833D01*
X1383119Y1503833D02*
Y1543833D01*
X1383369Y1503833D02*
Y1543833D01*
X1383619Y1503833D02*
Y1543833D01*
X1383869Y1503833D02*
Y1543833D01*
X1384119Y1503833D02*
Y1543833D01*
X1384369Y1503833D02*
Y1543833D01*
X1384619Y1503833D02*
Y1543833D01*
X1384869Y1503833D02*
Y1543833D01*
X1385119Y1503833D02*
Y1543833D01*
X1385369Y1503833D02*
Y1543833D01*
X1385619Y1503833D02*
Y1543833D01*
X1385869Y1503833D02*
Y1543833D01*
X1386119Y1503833D02*
Y1543833D01*
X1386369Y1503833D02*
Y1543833D01*
X1386619Y1503833D02*
Y1543833D01*
X1386869Y1503833D02*
Y1543833D01*
X1387119Y1503833D02*
Y1543833D01*
X1387369Y1503833D02*
Y1543833D01*
X1387619Y1503833D02*
Y1543833D01*
X1387869Y1503833D02*
Y1543833D01*
X1388119Y1503833D02*
Y1543833D01*
X1388369Y1503833D02*
Y1543833D01*
X1388619Y1503833D02*
Y1543833D01*
X1388869Y1503833D02*
Y1543833D01*
X1389119Y1503833D02*
Y1543833D01*
X1389369Y1503833D02*
Y1543833D01*
X1389619Y1503833D02*
Y1543833D01*
X1389869Y1503833D02*
Y1543833D01*
X1390119Y1503833D02*
Y1543833D01*
X1390369Y1503833D02*
Y1543833D01*
X1390619Y1503833D02*
Y1543833D01*
X1390869Y1503833D02*
Y1543833D01*
X1391119Y1503833D02*
Y1543833D01*
X1391369Y1503833D02*
Y1543833D01*
X1391619Y1503833D02*
Y1543833D01*
X1391869Y1503833D02*
Y1543833D01*
X1392119Y1503833D02*
Y1543833D01*
X1392369Y1503833D02*
Y1543833D01*
X1392619Y1503833D02*
Y1543833D01*
X1392869Y1503833D02*
Y1543833D01*
X1393119Y1503833D02*
Y1543833D01*
X1393369Y1503833D02*
Y1543833D01*
X1393619Y1503833D02*
Y1543833D01*
X1393869Y1503833D02*
Y1543833D01*
X1394119Y1503833D02*
Y1543833D01*
X1394369Y1503833D02*
Y1543833D01*
X1394619Y1503833D02*
Y1543833D01*
X1394869Y1503833D02*
Y1543833D01*
X1395119Y1503833D02*
Y1543833D01*
X1395369Y1503833D02*
Y1543833D01*
X1395619Y1503833D02*
Y1543833D01*
X1395869Y1503833D02*
Y1543833D01*
X1278269D02*
X1300369D01*
Y1503833*
X1278269*
Y1543833*
X1278369Y1503833D02*
Y1543833D01*
X1278619Y1503833D02*
Y1543833D01*
X1278869Y1503833D02*
Y1543833D01*
X1279119Y1503833D02*
Y1543833D01*
X1279369Y1503833D02*
Y1543833D01*
X1279619Y1503833D02*
Y1543833D01*
X1279869Y1503833D02*
Y1543833D01*
X1280119Y1503833D02*
Y1543833D01*
X1280369Y1503833D02*
Y1543833D01*
X1280619Y1503833D02*
Y1543833D01*
X1280869Y1503833D02*
Y1543833D01*
X1281119Y1503833D02*
Y1543833D01*
X1281369Y1503833D02*
Y1543833D01*
X1281619Y1503833D02*
Y1543833D01*
X1281869Y1503833D02*
Y1543833D01*
X1282119Y1503833D02*
Y1543833D01*
X1282369Y1503833D02*
Y1543833D01*
X1282619Y1503833D02*
Y1543833D01*
X1282869Y1503833D02*
Y1543833D01*
X1283119Y1503833D02*
Y1543833D01*
X1283369Y1503833D02*
Y1543833D01*
X1283619Y1503833D02*
Y1543833D01*
X1283869Y1503833D02*
Y1543833D01*
X1284119Y1503833D02*
Y1543833D01*
X1284369Y1503833D02*
Y1543833D01*
X1284619Y1503833D02*
Y1543833D01*
X1284869Y1503833D02*
Y1543833D01*
X1285119Y1503833D02*
Y1543833D01*
X1285369Y1503833D02*
Y1543833D01*
X1285619Y1503833D02*
Y1543833D01*
X1285869Y1503833D02*
Y1543833D01*
X1286119Y1503833D02*
Y1543833D01*
X1286369Y1503833D02*
Y1543833D01*
X1286619Y1503833D02*
Y1543833D01*
X1286869Y1503833D02*
Y1543833D01*
X1287119Y1503833D02*
Y1543833D01*
X1287369Y1503833D02*
Y1543833D01*
X1287619Y1503833D02*
Y1543833D01*
X1287869Y1503833D02*
Y1543833D01*
X1288119Y1503833D02*
Y1543833D01*
X1288369Y1503833D02*
Y1543833D01*
X1288619Y1503833D02*
Y1543833D01*
X1288869Y1503833D02*
Y1543833D01*
X1289119Y1503833D02*
Y1543833D01*
X1289369Y1503833D02*
Y1543833D01*
X1289619Y1503833D02*
Y1543833D01*
X1289869Y1503833D02*
Y1543833D01*
X1290119Y1503833D02*
Y1543833D01*
X1290369Y1503833D02*
Y1543833D01*
X1290619Y1503833D02*
Y1543833D01*
X1290869Y1503833D02*
Y1543833D01*
X1291119Y1503833D02*
Y1543833D01*
X1291369Y1503833D02*
Y1543833D01*
X1291619Y1503833D02*
Y1543833D01*
X1291869Y1503833D02*
Y1543833D01*
X1292119Y1503833D02*
Y1543833D01*
X1292369Y1503833D02*
Y1543833D01*
X1292619Y1503833D02*
Y1543833D01*
X1292869Y1503833D02*
Y1543833D01*
X1293119Y1503833D02*
Y1543833D01*
X1293369Y1503833D02*
Y1543833D01*
X1293619Y1503833D02*
Y1543833D01*
X1293869Y1503833D02*
Y1543833D01*
X1294119Y1503833D02*
Y1543833D01*
X1294369Y1503833D02*
Y1543833D01*
X1294619Y1503833D02*
Y1543833D01*
X1294869Y1503833D02*
Y1543833D01*
X1295119Y1503833D02*
Y1543833D01*
X1295369Y1503833D02*
Y1543833D01*
X1295619Y1503833D02*
Y1543833D01*
X1295869Y1503833D02*
Y1543833D01*
X1296119Y1503833D02*
Y1543833D01*
X1296369Y1503833D02*
Y1543833D01*
X1296619Y1503833D02*
Y1543833D01*
X1296869Y1503833D02*
Y1543833D01*
X1297119Y1503833D02*
Y1543833D01*
X1297369Y1503833D02*
Y1543833D01*
X1297619Y1503833D02*
Y1543833D01*
X1297869Y1503833D02*
Y1543833D01*
X1298119Y1503833D02*
Y1543833D01*
X1298369Y1503833D02*
Y1543833D01*
X1298619Y1503833D02*
Y1543833D01*
X1298869Y1503833D02*
Y1543833D01*
X1299119Y1503833D02*
Y1543833D01*
X1299369Y1503833D02*
Y1543833D01*
X1299619Y1503833D02*
Y1543833D01*
X1299869Y1503833D02*
Y1543833D01*
X1300119Y1503833D02*
Y1543833D01*
X1213520D02*
X1235520D01*
Y1503833*
X1213520*
Y1543833*
X1213670Y1503833D02*
Y1543833D01*
X1213920Y1503833D02*
Y1543833D01*
X1214170Y1503833D02*
Y1543833D01*
X1214420Y1503833D02*
Y1543833D01*
X1214670Y1503833D02*
Y1543833D01*
X1214920Y1503833D02*
Y1543833D01*
X1215170Y1503833D02*
Y1543833D01*
X1215420Y1503833D02*
Y1543833D01*
X1215670Y1503833D02*
Y1543833D01*
X1215920Y1503833D02*
Y1543833D01*
X1216170Y1503833D02*
Y1543833D01*
X1216420Y1503833D02*
Y1543833D01*
X1216670Y1503833D02*
Y1543833D01*
X1216920Y1503833D02*
Y1543833D01*
X1217170Y1503833D02*
Y1543833D01*
X1217420Y1503833D02*
Y1543833D01*
X1217670Y1503833D02*
Y1543833D01*
X1217920Y1503833D02*
Y1543833D01*
X1218170Y1503833D02*
Y1543833D01*
X1218420Y1503833D02*
Y1543833D01*
X1218670Y1503833D02*
Y1543833D01*
X1218920Y1503833D02*
Y1543833D01*
X1219170Y1503833D02*
Y1543833D01*
X1219420Y1503833D02*
Y1543833D01*
X1219670Y1503833D02*
Y1543833D01*
X1219920Y1503833D02*
Y1543833D01*
X1220170Y1503833D02*
Y1543833D01*
X1220420Y1503833D02*
Y1543833D01*
X1220670Y1503833D02*
Y1543833D01*
X1220920Y1503833D02*
Y1543833D01*
X1221170Y1503833D02*
Y1543833D01*
X1221420Y1503833D02*
Y1543833D01*
X1221670Y1503833D02*
Y1543833D01*
X1221920Y1503833D02*
Y1543833D01*
X1222170Y1503833D02*
Y1543833D01*
X1222420Y1503833D02*
Y1543833D01*
X1222670Y1503833D02*
Y1543833D01*
X1222920Y1503833D02*
Y1543833D01*
X1223170Y1503833D02*
Y1543833D01*
X1223420Y1503833D02*
Y1543833D01*
X1223670Y1503833D02*
Y1543833D01*
X1223920Y1503833D02*
Y1543833D01*
X1224170Y1503833D02*
Y1543833D01*
X1224420Y1503833D02*
Y1543833D01*
X1224670Y1503833D02*
Y1543833D01*
X1224920Y1503833D02*
Y1543833D01*
X1225170Y1503833D02*
Y1543833D01*
X1225420Y1503833D02*
Y1543833D01*
X1225670Y1503833D02*
Y1543833D01*
X1225920Y1503833D02*
Y1543833D01*
X1226170Y1503833D02*
Y1543833D01*
X1226420Y1503833D02*
Y1543833D01*
X1226670Y1503833D02*
Y1543833D01*
X1226920Y1503833D02*
Y1543833D01*
X1227170Y1503833D02*
Y1543833D01*
X1227420Y1503833D02*
Y1543833D01*
X1227670Y1503833D02*
Y1543833D01*
X1227920Y1503833D02*
Y1543833D01*
X1228170Y1503833D02*
Y1543833D01*
X1228420Y1503833D02*
Y1543833D01*
X1228670Y1503833D02*
Y1543833D01*
X1228920Y1503833D02*
Y1543833D01*
X1229170Y1503833D02*
Y1543833D01*
X1229420Y1503833D02*
Y1543833D01*
X1229670Y1503833D02*
Y1543833D01*
X1229920Y1503833D02*
Y1543833D01*
X1230170Y1503833D02*
Y1543833D01*
X1230420Y1503833D02*
Y1543833D01*
X1230670Y1503833D02*
Y1543833D01*
X1230920Y1503833D02*
Y1543833D01*
X1231170Y1503833D02*
Y1543833D01*
X1231420Y1503833D02*
Y1543833D01*
X1231670Y1503833D02*
Y1543833D01*
X1231920Y1503833D02*
Y1543833D01*
X1232170Y1503833D02*
Y1543833D01*
X1232420Y1503833D02*
Y1543833D01*
X1232670Y1503833D02*
Y1543833D01*
X1232920Y1503833D02*
Y1543833D01*
X1233170Y1503833D02*
Y1543833D01*
X1233420Y1503833D02*
Y1543833D01*
X1233670Y1503833D02*
Y1543833D01*
X1233920Y1503833D02*
Y1543833D01*
X1234170Y1503833D02*
Y1543833D01*
X1234420Y1503833D02*
Y1543833D01*
X1234670Y1503833D02*
Y1543833D01*
X1234920Y1503833D02*
Y1543833D01*
X1235170Y1503833D02*
Y1543833D01*
X1235420Y1503833D02*
Y1543833D01*
X1117820D02*
X1139920D01*
Y1503833*
X1117820*
Y1543833*
X1117920Y1503833D02*
Y1543833D01*
X1118170Y1503833D02*
Y1543833D01*
X1118420Y1503833D02*
Y1543833D01*
X1118670Y1503833D02*
Y1543833D01*
X1118920Y1503833D02*
Y1543833D01*
X1119170Y1503833D02*
Y1543833D01*
X1119420Y1503833D02*
Y1543833D01*
X1119670Y1503833D02*
Y1543833D01*
X1119920Y1503833D02*
Y1543833D01*
X1120170Y1503833D02*
Y1543833D01*
X1120420Y1503833D02*
Y1543833D01*
X1120670Y1503833D02*
Y1543833D01*
X1120920Y1503833D02*
Y1543833D01*
X1121170Y1503833D02*
Y1543833D01*
X1121420Y1503833D02*
Y1543833D01*
X1121670Y1503833D02*
Y1543833D01*
X1121920Y1503833D02*
Y1543833D01*
X1122170Y1503833D02*
Y1543833D01*
X1122420Y1503833D02*
Y1543833D01*
X1122670Y1503833D02*
Y1543833D01*
X1122920Y1503833D02*
Y1543833D01*
X1123170Y1503833D02*
Y1543833D01*
X1123420Y1503833D02*
Y1543833D01*
X1123670Y1503833D02*
Y1543833D01*
X1123920Y1503833D02*
Y1543833D01*
X1124170Y1503833D02*
Y1543833D01*
X1124420Y1503833D02*
Y1543833D01*
X1124670Y1503833D02*
Y1543833D01*
X1124920Y1503833D02*
Y1543833D01*
X1125170Y1503833D02*
Y1543833D01*
X1125420Y1503833D02*
Y1543833D01*
X1125670Y1503833D02*
Y1543833D01*
X1125920Y1503833D02*
Y1543833D01*
X1126170Y1503833D02*
Y1543833D01*
X1126420Y1503833D02*
Y1543833D01*
X1126670Y1503833D02*
Y1543833D01*
X1126920Y1503833D02*
Y1543833D01*
X1127170Y1503833D02*
Y1543833D01*
X1127420Y1503833D02*
Y1543833D01*
X1127670Y1503833D02*
Y1543833D01*
X1127920Y1503833D02*
Y1543833D01*
X1128170Y1503833D02*
Y1543833D01*
X1128420Y1503833D02*
Y1543833D01*
X1128670Y1503833D02*
Y1543833D01*
X1128920Y1503833D02*
Y1543833D01*
X1129170Y1503833D02*
Y1543833D01*
X1129420Y1503833D02*
Y1543833D01*
X1129670Y1503833D02*
Y1543833D01*
X1129920Y1503833D02*
Y1543833D01*
X1130170Y1503833D02*
Y1543833D01*
X1130420Y1503833D02*
Y1543833D01*
X1130670Y1503833D02*
Y1543833D01*
X1130920Y1503833D02*
Y1543833D01*
X1131170Y1503833D02*
Y1543833D01*
X1131420Y1503833D02*
Y1543833D01*
X1131670Y1503833D02*
Y1543833D01*
X1131920Y1503833D02*
Y1543833D01*
X1132170Y1503833D02*
Y1543833D01*
X1132420Y1503833D02*
Y1543833D01*
X1132670Y1503833D02*
Y1543833D01*
X1132920Y1503833D02*
Y1543833D01*
X1133170Y1503833D02*
Y1543833D01*
X1133420Y1503833D02*
Y1543833D01*
X1133670Y1503833D02*
Y1543833D01*
X1133920Y1503833D02*
Y1543833D01*
X1134170Y1503833D02*
Y1543833D01*
X1134420Y1503833D02*
Y1543833D01*
X1134670Y1503833D02*
Y1543833D01*
X1134920Y1503833D02*
Y1543833D01*
X1135170Y1503833D02*
Y1543833D01*
X1135420Y1503833D02*
Y1543833D01*
X1135670Y1503833D02*
Y1543833D01*
X1135920Y1503833D02*
Y1543833D01*
X1136170Y1503833D02*
Y1543833D01*
X1136420Y1503833D02*
Y1543833D01*
X1136670Y1503833D02*
Y1543833D01*
X1136920Y1503833D02*
Y1543833D01*
X1137170Y1503833D02*
Y1543833D01*
X1137420Y1503833D02*
Y1543833D01*
X1137670Y1503833D02*
Y1543833D01*
X1137920Y1503833D02*
Y1543833D01*
X1138170Y1503833D02*
Y1543833D01*
X1138420Y1503833D02*
Y1543833D01*
X1138670Y1503833D02*
Y1543833D01*
X1138920Y1503833D02*
Y1543833D01*
X1139170Y1503833D02*
Y1543833D01*
X1139420Y1503833D02*
Y1543833D01*
X1139670Y1503833D02*
Y1543833D01*
G54D32*
X1130600Y1298045D03*
Y1291155D03*
X1145600Y1298045D03*
Y1291155D03*
X1289210Y1296438D03*
Y1289549D03*
X1597910Y1234249D03*
Y1241138D03*
X1336600Y1191155D03*
Y1198045D03*
X1138100Y1298045D03*
Y1291155D03*
X1361800Y1174155D03*
Y1181045D03*
G54D33*
X1282055Y1295160D03*
X1275166D03*
X1506265Y1273104D03*
X1513155D03*
X1164355Y1050300D03*
X1171245D03*
X1194855Y1043500D03*
X1201745D03*
X1244265Y1144193D03*
X1251155D03*
X1317445Y1169500D03*
X1310555D03*
X1297265Y1295693D03*
X1304155D03*
X1240655Y1154960D03*
X1233766D03*
X1139845Y1107200D03*
X1132955D03*
G54D51*
X1283575Y1081512D02*
X1280425D01*
X1283575Y1070488D02*
X1280425D01*
X1570185Y1078171D02*
X1567036D01*
X1570185Y1067148D02*
X1567036D01*
X1652439Y1066241D02*
Y1063092D01*
X1663463Y1066241D02*
Y1063092D01*
X1258988Y1046075D02*
Y1042925D01*
X1270012Y1046075D02*
Y1042925D01*
G54D137*
G54D139*
X1242686Y902250D02*
X1242527Y902688D01*
X1242527D02*
X1242209Y903125D01*
X1241891Y903344*
X1241255*
X1240936Y903125*
X1240618Y902688*
X1240618D02*
X1240459Y902250D01*
X1240300Y901594*
Y900500*
X1240459Y899844*
X1240618Y899406*
X1240936Y898969*
X1241255Y898750*
X1241891*
X1242209Y898969*
X1242527Y899406*
X1242686Y899844*
X1244118Y903344D02*
Y898750D01*
Y900938D02*
X1244595Y901594D01*
X1244914Y901813*
X1244914D02*
X1245391D01*
X1245391D02*
X1245709Y901594D01*
X1245868Y900938*
X1245868D02*
Y898750D01*
X1247300Y901813D02*
Y899625D01*
X1247459Y898969*
X1247777Y898750*
X1248255*
X1248573Y898969*
X1249050Y899625*
Y901813D02*
Y898750D01*
X1250482Y901813D02*
Y898750D01*
Y900938D02*
X1250959Y901594D01*
X1251277Y901813*
X1251277D02*
X1251755D01*
X1251755D02*
X1252073Y901594D01*
X1252232Y900938*
X1252232D02*
Y898750D01*
X1253664Y903344D02*
Y898750D01*
Y900938D02*
X1254141Y901594D01*
X1254459Y901813*
X1254459D02*
X1254936D01*
X1254936D02*
X1255255Y901594D01*
X1255414Y900938*
X1255414D02*
Y898750D01*
X1256845Y901813D02*
Y899625D01*
X1257005Y898969*
X1257323Y898750*
X1257800*
X1258118Y898969*
X1258595Y899625*
Y901813D02*
Y898750D01*
X1261936Y901813D02*
Y898750D01*
Y901156D02*
X1261618Y901594D01*
X1261300Y901813*
X1261300D02*
X1260823D01*
X1260823D02*
X1260505Y901594D01*
X1260186Y901156*
X1260027Y900500*
Y900063*
X1260027D02*
X1260186Y899406D01*
X1260505Y898969*
X1260823Y898750*
X1261300*
X1261618Y898969*
X1261936Y899406*
X1263527Y899188D02*
X1263368Y898969D01*
X1263527Y898750*
X1263686Y898969*
X1263527Y899188*
X1265118Y901813D02*
X1266868Y898750D01*
Y901813D02*
X1265118Y898750D01*
X1268300Y901813D02*
Y899625D01*
X1268459Y898969*
X1268777Y898750*
X1269255*
X1269573Y898969*
X1270050Y899625*
Y901813D02*
Y898750D01*
X1240495Y893344D02*
X1240018Y893125D01*
X1239859Y892688*
X1239859D02*
Y892250D01*
X1240018Y891813*
X1240018D02*
X1240336Y891594D01*
X1240973Y891375*
X1241450Y891156*
X1241768Y890719*
X1241927Y890281*
Y889625*
X1241768Y889188*
X1241768D02*
X1241609Y888969D01*
X1241132Y888750*
X1240495*
X1240018Y888969*
X1239859Y889188*
X1239859D02*
X1239700Y889625D01*
Y890281*
X1239859Y890719*
X1240177Y891156*
X1240655Y891375*
X1241291Y891594*
X1241609Y891813*
X1241609D02*
X1241768Y892250D01*
Y892688*
X1241768D02*
X1241609Y893125D01*
X1241132Y893344*
X1240495*
X1245427D02*
X1243836D01*
X1243677Y891375*
X1243836Y891594*
X1244314Y891813*
X1244314D02*
X1244791D01*
X1244791D02*
X1245268Y891594D01*
X1245586Y891156*
X1245745Y890500*
X1245586Y890063*
X1245586D02*
X1245427Y889406D01*
X1245109Y888969*
X1244632Y888750*
X1244155*
X1243677Y888969*
X1243518Y889188*
X1243518D02*
X1243359Y889625D01*
X1247336Y892250D02*
Y892469D01*
X1247495Y892906*
X1247655Y893125*
X1247973Y893344*
X1248609*
X1248927Y893125*
X1249086Y892906*
X1249245Y892469*
Y892031*
X1249086Y891594*
X1248768Y890938*
X1248768D02*
X1247177Y888750D01*
X1249405*
X1250836Y892469D02*
X1251155Y892688D01*
X1251155D02*
X1251632Y893344D01*
Y888750*
X1255291Y893344D02*
X1253700Y888750D01*
X1253064Y893344D02*
X1255291D01*
G54D170*
X1218870Y1146684D03*
X1222610D03*
X1226351D03*
Y1137235D03*
X1218870D03*
X1347360Y1181124D03*
X1351100D03*
X1354840D03*
Y1171676D03*
X1347360D03*
G54D202*
X1506828Y1264104D02*
X1508206D01*
X1520214D02*
X1521592D01*
G54D214*
X1496628Y1274246D02*
Y1272316D01*
Y1265781D02*
Y1263852D01*
X1489069Y1265781D02*
Y1263852D01*
G54D373*
X1323441Y1169200D02*
Y1168800D01*
X1328559Y1169200D02*
Y1168800D01*
X1443746Y1338007D02*
Y1338407D01*
X1438628Y1338007D02*
Y1338407D01*
X1433887Y1343266D02*
X1433487D01*
X1433887Y1338148D02*
X1433487D01*
X1329159Y1183800D02*
Y1184200D01*
X1324041Y1183800D02*
Y1184200D01*
X1304951Y1228360D02*
Y1227960D01*
X1310070Y1228360D02*
Y1227960D01*
X1271259Y1166900D02*
Y1167300D01*
X1266141Y1166900D02*
Y1167300D01*
X1590451Y1250560D02*
Y1250160D01*
X1595569Y1250560D02*
Y1250160D01*
X1262559Y1272600D02*
Y1273000D01*
X1257441Y1272600D02*
Y1273000D01*
X1245941Y1156200D02*
Y1155800D01*
X1251059Y1156200D02*
Y1155800D01*
X1329159Y1189200D02*
Y1189600D01*
X1324041Y1189200D02*
Y1189600D01*
X1368441Y1173700D02*
Y1173300D01*
X1373559Y1173700D02*
Y1173300D01*
X1335441Y1174200D02*
Y1173800D01*
X1340559Y1174200D02*
Y1173800D01*
X1326941Y1163700D02*
Y1163300D01*
X1332059Y1163700D02*
Y1163300D01*
X1317059Y1155800D02*
Y1156200D01*
X1311941Y1155800D02*
Y1156200D01*
X1245941Y1151200D02*
Y1150800D01*
X1251059Y1151200D02*
Y1150800D01*
X1124800Y1108759D02*
X1124400D01*
X1124800Y1103641D02*
X1124400D01*
G54D378*
X1320610Y1402160D03*
Y1403960D03*
X1318010Y1450360D03*
Y1452160D03*
X1311600Y1436000D03*
X1313400D03*
X1338500Y1447000D03*
Y1445200D03*
X1323700Y1446500D03*
Y1444700D03*
X1170800Y1451900D03*
X1172600D03*
X1327000Y1450600D03*
Y1452400D03*
X1157500Y1448100D03*
Y1446300D03*
X1151900Y1434800D03*
X1153700D03*
X1164900Y1450300D03*
Y1452100D03*
X1161610Y1401960D03*
Y1403760D03*
X1162000Y1450300D03*
Y1452100D03*
X1149500Y1428800D03*
X1151300D03*
X1308600Y1430000D03*
X1310400D03*
G54D379*
X1148800Y1435000D03*
Y1438600D03*
X1195800Y1437800D03*
X1199400D03*
X1327410Y1403460D03*
X1323810D03*
X1352510Y1436360D03*
X1356110D03*
X1341900Y1446700D03*
Y1443100D03*
X1314859Y1449993D03*
Y1446393D03*
X1318700Y1446100D03*
Y1442500D03*
X1307000Y1438200D03*
Y1441800D03*
X1310700Y1433000D03*
X1314300D03*
X1170110Y1403760D03*
X1173710D03*
X1177700Y1448900D03*
Y1452500D03*
X1151800Y1431700D03*
X1155400D03*
X1154200Y1450900D03*
Y1447300D03*
X1169900Y1455100D03*
X1173500D03*
X1325410Y1398660D03*
Y1395060D03*
X1172410Y1400360D03*
Y1396760D03*
X1130610Y1348593D03*
X1134210D03*
X1460010Y1350960D03*
X1463610D03*
X1419110Y1368660D03*
X1415510D03*
X1460010Y1354460D03*
X1463610D03*
X1156710Y1044043D03*
X1160310D03*
X1194810Y1049343D03*
X1191210D03*
X1284700Y1211960D03*
Y1215560D03*
X1327200Y1159000D03*
X1330800D03*
X1290410Y1222760D03*
X1286810D03*
X1281700Y1211960D03*
Y1215560D03*
X1286610Y1347160D03*
X1283010D03*
X1221610Y1348693D03*
X1218010D03*
X1355010Y1213260D03*
X1351410D03*
X1342410Y1201060D03*
Y1204660D03*
X1292510Y1211660D03*
Y1215260D03*
X1296610Y1216860D03*
Y1213260D03*
X1302610Y1209660D03*
Y1206060D03*
X1299610Y1213010D03*
Y1209410D03*
X1278700Y1169900D03*
Y1166300D03*
X1300010Y1221260D03*
Y1224860D03*
X1316610Y1217960D03*
Y1214360D03*
X1266410Y1212760D03*
X1262810D03*
X1223510Y1223960D03*
Y1220360D03*
X1268100Y1225000D03*
X1264500D03*
X1263200Y1209700D03*
X1259600D03*
X1214610Y1230360D03*
Y1233960D03*
X1221900Y1230700D03*
X1218300D03*
X1229110Y1229960D03*
X1232710D03*
X1198100Y1235800D03*
X1194500D03*
X1221410Y1201160D03*
Y1204760D03*
X1213410Y1205160D03*
Y1201560D03*
X1233110Y1203460D03*
Y1199860D03*
X1194410Y1211660D03*
X1190810D03*
X1218710Y1195460D03*
X1222310D03*
X1217510Y1221660D03*
Y1225260D03*
X1205010Y1200360D03*
Y1203960D03*
X1184400Y1230800D03*
X1180800D03*
X1190500Y1204700D03*
Y1208300D03*
X1251910Y1194660D03*
X1248310D03*
X1278710Y1162860D03*
X1275110D03*
X1488910Y1260604D03*
X1492510D03*
X1214859Y1132993D03*
X1211259D03*
X1206959Y1141993D03*
Y1145593D03*
X1346900Y1165900D03*
X1343300D03*
X1590610Y1224193D03*
X1587010D03*
X1590610Y1229993D03*
X1587010D03*
X1590610Y1239993D03*
X1587010D03*
X1590610Y1246193D03*
X1587010D03*
X1620311Y1272988D03*
Y1269388D03*
X1590721Y1273197D03*
Y1269597D03*
X1607110Y1155260D03*
Y1158860D03*
X1637511Y1155559D03*
Y1159159D03*
X1652410Y1155760D03*
Y1159360D03*
X1622510Y1155260D03*
Y1158860D03*
X1279010Y1258193D03*
Y1261793D03*
X1293410Y1224760D03*
X1297010D03*
X1270400Y1240400D03*
Y1244000D03*
X1278459Y1224969D03*
X1274859D03*
X1282042Y1224603D03*
Y1228203D03*
X1272010Y1217260D03*
Y1220860D03*
X1271000Y1212800D03*
Y1209200D03*
X1272356Y1228032D03*
X1268756D03*
X1289510Y1216760D03*
Y1213160D03*
X1290010Y1219760D03*
X1286410D03*
X1316800Y1164000D03*
X1313200D03*
X1327200Y1155500D03*
X1330800D03*
X1316800Y1160500D03*
X1313200D03*
X1342500Y1178200D03*
Y1181800D03*
X1139200Y1101400D03*
X1135600D03*
X1120400Y1107300D03*
Y1103700D03*
X1275375Y1228071D03*
X1278975D03*
X1278639Y1215700D03*
Y1212100D03*
X1274000Y1213200D03*
Y1209600D03*
X1278800Y1220000D03*
X1275200D03*
X1351610Y1252360D03*
Y1255960D03*
X1083800Y1192200D03*
Y1195800D03*
X1088900Y1240000D03*
Y1236400D03*
X1093800Y1192400D03*
Y1196000D03*
X1503000Y1263800D03*
Y1260200D03*
X1328710Y1287560D03*
Y1283960D03*
Y1277360D03*
Y1280960D03*
X1283010Y1198660D03*
Y1195060D03*
X1298810Y1248360D03*
Y1251960D03*
Y1258960D03*
Y1255360D03*
X1255110Y1195460D03*
Y1191860D03*
X1230200Y1169600D03*
Y1173200D03*
X1226700Y1169600D03*
Y1173200D03*
X1124810Y1152460D03*
Y1148860D03*
X1121810Y1152460D03*
Y1148860D03*
X1322010Y1284160D03*
X1325610D03*
X1287400Y1245700D03*
Y1249300D03*
X1291500Y1080300D03*
Y1076700D03*
X1303500Y1080300D03*
Y1076700D03*
X1315500Y1080300D03*
Y1076700D03*
X1327500Y1080300D03*
Y1076700D03*
X1340000Y1080300D03*
Y1076700D03*
X1352000Y1080300D03*
Y1076700D03*
X1364000Y1080300D03*
Y1076700D03*
X1376000Y1080300D03*
Y1076700D03*
X1153010Y1348693D03*
X1149410D03*
X1142210Y1348593D03*
X1145810D03*
X1427000Y1080300D03*
Y1076700D03*
X1439500Y1080300D03*
Y1076700D03*
X1403000Y1080300D03*
Y1076700D03*
X1415000Y1080300D03*
Y1076700D03*
X1451000Y1080300D03*
Y1076700D03*
X1463500Y1080300D03*
Y1076700D03*
X1475500Y1080300D03*
Y1076700D03*
X1487500Y1080300D03*
Y1076700D03*
X1516000Y1078800D03*
Y1075200D03*
X1531000Y1078800D03*
Y1075200D03*
X1546000Y1078800D03*
Y1075200D03*
X1561000Y1078800D03*
Y1075200D03*
X1321910Y1280860D03*
X1325510D03*
X1291110Y1245660D03*
Y1249260D03*
X1194500Y1204700D03*
Y1208300D03*
X1203110Y1212160D03*
X1199510D03*
X1248310Y1197660D03*
X1251910D03*
Y1191660D03*
X1248310D03*
X1194500Y1232400D03*
X1198100D03*
Y1239300D03*
X1194500D03*
X1192250Y1191200D03*
Y1194800D03*
X1191450Y1199000D03*
X1195050D03*
X1278710Y1159460D03*
X1275110D03*
Y1156160D03*
X1278710D03*
X1267600Y1163100D03*
X1271200D03*
X1501410Y1267604D03*
X1505010D03*
X1590310Y1254993D03*
X1593910D03*
X1213859Y1145593D03*
Y1141993D03*
X1211259Y1136093D03*
X1214859D03*
Y1129593D03*
X1211259D03*
X1210359Y1145593D03*
Y1141993D03*
X1343300Y1159100D03*
X1346900D03*
Y1162500D03*
X1343300D03*
X1339000Y1181800D03*
Y1178200D03*
X1354500Y1163100D03*
Y1166700D03*
X1051510Y1047593D03*
Y1051193D03*
X1310910Y1205660D03*
X1307310D03*
X1499410Y1257160D03*
X1495810D03*
X1245410Y1320660D03*
Y1317060D03*
X1248810Y1320660D03*
Y1317060D03*
X1267210Y1305660D03*
Y1302060D03*
X1263710Y1305660D03*
Y1302060D03*
X1251410Y1295460D03*
X1255010D03*
X1251310Y1291360D03*
X1254910D03*
X1290710Y1266960D03*
X1287110D03*
X1290710Y1271260D03*
X1287110D03*
X1295610Y1280260D03*
X1292010D03*
X1295510Y1283760D03*
X1291910D03*
X1352210Y1296460D03*
X1355810D03*
X1352210Y1299460D03*
X1355810D03*
X1088800Y1195800D03*
Y1192200D03*
G54D380*
X1343710Y1404560D02*
X1343510D01*
X1343710Y1399160D02*
X1343510D01*
X1180510Y1402460D02*
X1180310D01*
X1180510Y1397060D02*
X1180310D01*
G54D384*
X1349548Y1186836D02*
Y1191364D01*
X1343052Y1186836D02*
Y1191364D01*
X1232252Y1148764D02*
Y1144236D01*
X1238748Y1148764D02*
Y1144236D01*
G54D393*
X1006500Y1049000D02*
X1014500D01*
X1006500Y1021000D02*
X1014500D01*
G54D396*
X1347417Y1209149D02*
X1346629D01*
X1356592Y1209141D02*
X1355804D01*
X1356584Y1201971D02*
X1355797D01*
X1347424D02*
X1346637D01*
G54D408*
X1489856Y1273399D02*
Y1273163D01*
G54D409*
X1093900Y1199875D02*
Y1204993D01*
X1088900Y1199875D02*
Y1204993D01*
X1083900Y1199875D02*
Y1204993D01*
X1078900Y1199875D02*
Y1204993D01*
Y1226607D02*
Y1231725D01*
X1083900Y1226607D02*
Y1231725D01*
X1088900Y1226607D02*
Y1231725D01*
X1093900Y1226607D02*
Y1231725D01*
G54D410*
X1383619Y1305930D02*
Y1311836D01*
X1382044Y1338214D02*
Y1344119D01*
X1380469Y1305930D02*
Y1311836D01*
X1378895Y1338214D02*
Y1344119D01*
X1377320Y1305930D02*
Y1311836D01*
X1375745Y1338214D02*
Y1344119D01*
X1374170Y1305930D02*
Y1311836D01*
X1372595Y1338214D02*
Y1344119D01*
X1371021Y1305930D02*
Y1311836D01*
X1369446Y1338214D02*
Y1344119D01*
X1367871Y1305930D02*
Y1311836D01*
X1366296Y1338214D02*
Y1344119D01*
X1364721Y1305930D02*
Y1311836D01*
X1363147Y1338214D02*
Y1344119D01*
X1361572Y1305930D02*
Y1311836D01*
X1359997Y1338214D02*
Y1344119D01*
X1345824Y1305930D02*
Y1311836D01*
X1344249Y1338214D02*
Y1344119D01*
X1342674Y1305930D02*
Y1311836D01*
X1341099Y1338214D02*
Y1344119D01*
X1339525Y1305930D02*
Y1311836D01*
X1337950Y1338214D02*
Y1344119D01*
X1336375Y1305930D02*
Y1311836D01*
X1334800Y1338214D02*
Y1344119D01*
X1333225Y1305930D02*
Y1311836D01*
X1331651Y1338214D02*
Y1344119D01*
X1330076Y1305930D02*
Y1311836D01*
X1328501Y1338214D02*
Y1344119D01*
X1326926Y1305930D02*
Y1311836D01*
X1325351Y1338214D02*
Y1344119D01*
X1323776Y1305930D02*
Y1311836D01*
X1322202Y1338214D02*
Y1344119D01*
X1320627Y1305930D02*
Y1311836D01*
X1319052Y1338214D02*
Y1344119D01*
X1317477Y1305930D02*
Y1311836D01*
X1315902Y1338214D02*
Y1344119D01*
X1314328Y1305930D02*
Y1311836D01*
X1312753Y1338214D02*
Y1344119D01*
X1311178Y1305930D02*
Y1311836D01*
X1309603Y1338214D02*
Y1344119D01*
X1308028Y1305930D02*
Y1311836D01*
X1306454Y1338214D02*
Y1344119D01*
X1304879Y1305930D02*
Y1311836D01*
X1303304Y1338214D02*
Y1344119D01*
X1301729Y1305930D02*
Y1311836D01*
X1300154Y1338214D02*
Y1344119D01*
X1298580Y1305930D02*
Y1311836D01*
X1297005Y1338214D02*
Y1344119D01*
X1295430Y1305930D02*
Y1311836D01*
X1293855Y1338214D02*
Y1344119D01*
X1292280Y1305930D02*
Y1311836D01*
X1290706Y1338214D02*
Y1344119D01*
X1223170Y1305930D02*
Y1311836D01*
X1221595Y1338214D02*
Y1344119D01*
X1220020Y1305930D02*
Y1311836D01*
X1218446Y1338214D02*
Y1344119D01*
X1216871Y1305930D02*
Y1311836D01*
X1215296Y1338214D02*
Y1344119D01*
X1213721Y1305930D02*
Y1311836D01*
X1212146Y1338214D02*
Y1344119D01*
X1210572Y1305930D02*
Y1311836D01*
X1208997Y1338214D02*
Y1344119D01*
X1207422Y1305930D02*
Y1311836D01*
X1205847Y1338214D02*
Y1344119D01*
X1204272Y1305930D02*
Y1311836D01*
X1202698Y1338214D02*
Y1344119D01*
X1201123Y1305930D02*
Y1311836D01*
X1199548Y1338214D02*
Y1344119D01*
X1185375Y1305930D02*
Y1311836D01*
X1183800Y1338214D02*
Y1344119D01*
X1182225Y1305930D02*
Y1311836D01*
X1180650Y1338214D02*
Y1344119D01*
X1179076Y1305930D02*
Y1311836D01*
X1177501Y1338214D02*
Y1344119D01*
X1175926Y1305930D02*
Y1311836D01*
X1174351Y1338214D02*
Y1344119D01*
X1172776Y1305930D02*
Y1311836D01*
X1171202Y1338214D02*
Y1344119D01*
X1169627Y1305930D02*
Y1311836D01*
X1168052Y1338214D02*
Y1344119D01*
X1166477Y1305930D02*
Y1311836D01*
X1164902Y1338214D02*
Y1344119D01*
X1163327Y1305930D02*
Y1311836D01*
X1161753Y1338214D02*
Y1344119D01*
X1160178Y1305930D02*
Y1311836D01*
X1158603Y1338214D02*
Y1344119D01*
X1157028Y1305930D02*
Y1311836D01*
X1155453Y1338214D02*
Y1344119D01*
X1153879Y1305930D02*
Y1311836D01*
X1152304Y1338214D02*
Y1344119D01*
X1150729Y1305930D02*
Y1311836D01*
X1149154Y1338214D02*
Y1344119D01*
X1147579Y1305930D02*
Y1311836D01*
X1146005Y1338214D02*
Y1344119D01*
X1144430Y1305930D02*
Y1311836D01*
X1142855Y1338214D02*
Y1344119D01*
X1141280Y1305930D02*
Y1311836D01*
X1139705Y1338214D02*
Y1344119D01*
X1138131Y1305930D02*
Y1311836D01*
X1136556Y1338214D02*
Y1344119D01*
X1134981Y1305930D02*
Y1311836D01*
X1133406Y1338214D02*
Y1344119D01*
X1131831Y1305930D02*
Y1311836D01*
X1130257Y1338214D02*
Y1344119D01*
G54D411*
X1394839Y1310261D02*
Y1313804D01*
X1279485Y1310261D02*
Y1313804D01*
X1234390Y1310261D02*
Y1313804D01*
X1119036Y1310261D02*
Y1313804D01*
X0Y0D02*
M02*
