%
T1C.008F0S0
X12575Y119823
X126394Y120231
X126642Y120481
X12741Y120481
X126388Y120483
X12716Y120487
X126651Y120736
X127412Y120739
X126898Y120988
X127664Y120991
X126638Y120998
X126899Y12125
X126897Y121484
X127153Y121501
X126387Y121505
X127651Y121515
X126656Y12152
X12741Y12153
X127417Y121746
X127651Y121746
X126641Y121761
X126883Y121777
X12581Y121884
X126903Y122016
X127671Y122266
X127411Y122266
X126895Y122272
X126643Y122272
X127155Y122528
X126647Y122776
X126394Y122789
X126144Y122797
X125772Y122859
X12716Y12303
X127661Y123034
X126642Y123037
X126898Y123037
X126642Y123293
X126898Y123293
X12741Y123293
X127423Y123539
X127141Y123566
X125821Y124296
X13023Y123812
X128947Y123551
X129967Y123549
X13023Y123545
X12845Y123538
X129187Y123537
X129982Y123308
X128433Y123296
X12792Y123294
X128931Y123285
X129698Y123281
X129214Y123279
X128164Y123057
X127919Y12304
X13024Y12304
X12971Y123039
X128431Y123038
X128935Y12303
X129951Y123027
X129215Y123024
X129201Y122786
X13022Y12278
X128955Y122778
X129953Y122772
X1297Y12277
X128419Y122768
X128959Y122538
X130231Y122536
X128433Y122528
X129461Y122278
X127925Y122268
X128441Y122264
X130208Y122257
X128164Y122256
X128163Y122032
X129217Y12203
X129701Y122026
X129461Y122026
X130227Y122016
X128431Y122016
X129441Y121772
X12791Y12177
X128431Y121766
X128171Y121766
X130204Y12176
X12868Y121758
X129955Y121751
X129191Y121746
X129955Y121521
X129471Y121516
X1302Y121505
X12869Y121504
X130201Y121256
X128693Y121252
X128941Y120998
X129461Y120996
X129711Y120992
X128428Y120989
X127916Y120986
X128163Y120976
X128432Y12074
X128941Y120739
X129713Y120739
X128178Y120738
X129201Y120736
X127908Y120723
X129956Y12072
X129697Y120494
X129977Y120486
X128945Y120482
X12922Y12048
X127928Y120472
X127911Y120236
X130211Y120236
X131374Y119381
X131389Y119859
X131887Y120072
X130737Y120222
X130993Y120223
X130481Y120481
X130481Y120736
X132348Y12089
X130482Y120992
X13132Y121102
X130481Y121249
X132511Y121319
X130481Y121505
X131314Y121628
X130483Y122272
X130735Y122273
X130726Y122517
X130471Y122536
X132664Y122699
X132359Y122978
X130739Y123039
X132056Y123265
X130481Y123551
X131296Y124307
T2C.012F095S3
X10034Y100458
X101471Y100458
X102603Y100458
X10155Y101
X102037Y101024
X102603Y101589
X102603Y102721
X1023Y103
X1025Y1045
X102603Y104983
X10034Y106115
X101471Y106115
X102603Y106115
X102037Y106681
X100906Y106681
X10034Y107246
X102603Y107246
X101256Y107249
X102037Y107812
X100906Y107812
X10034Y108378
X102603Y108378
X101366Y108479
X102056Y108929
X100906Y108943
X10034Y109509
X102603Y109509
X101436Y109549
X100906Y110075
X102116Y110079
X101471Y11064
X10034Y11064
X1005Y11205
X101754Y112229
X10034Y112229
X101Y1123
X101Y11253
X101Y11275
X10034Y113644
X102461Y114351
X10034Y115058
X101754Y116472
X10034Y116472
X102461Y117179
X101761Y117239
X10157Y11777
X10034Y117886
X101911Y118366
X101611Y119056
X10034Y1193
X101621Y119376
X101621Y119696
X101621Y120016
X101621Y120336
X10034Y120715
X102461Y121422
X101754Y122129
X10034Y122129
X10272Y12215
X10225Y12262
X102461Y122836
X10034Y123543
X101754Y123543
X102461Y12425
X10034Y124957
X101754Y124957
X102461Y125664
X101754Y126372
X10034Y126372
X102461Y127079
X10034Y127786
X101754Y127786
X102461Y128493
X10034Y1292
X101754Y1292
X102461Y129907
X101754Y130614
X10034Y130614
X102461Y131321
X101754Y132028
X10034Y132028
X101754Y133443
X10034Y133443
X102461Y13415
X10205Y13468
X10034Y134857
X101754Y134857
X102461Y135564
X10034Y136271
X101754Y137685
X10034Y137685
X102461Y138392
X101754Y139099
X10034Y139099
X102461Y139807
X101061Y139816
X101811Y140716
X1005Y1412
X101061Y141566
X102561Y141566
X102561Y142616
X101047Y142635
X10034Y143342
X101754Y143342
X101047Y144049
X102561Y144066
X10034Y144756
X102461Y145463
X101047Y145463
X10034Y146171
X101047Y146878
X10034Y147585
X101754Y147585
X101047Y148292
X101754Y148999
X10034Y148999
X101047Y149706
X102161Y149716
X10034Y150413
X101047Y15112
X10145Y15165
X10034Y151827
X101047Y152535
X10034Y153242
X10105Y1533
X101047Y153949
X102461Y153949
X10175Y15415
X103876Y153949
X10529Y153949
X10355Y1535
X104583Y153242
X103876Y152535
X10529Y152535
X103168Y151827
X104583Y151827
X103876Y15112
X10529Y15112
X103168Y150413
X104583Y150413
X103876Y149706
X10529Y149706
X103161Y149066
X104961Y148616
X103168Y147585
X104583Y147585
X103876Y146878
X10529Y146878
X103168Y146171
X104583Y146171
X103876Y145463
X10529Y145463
X103168Y144756
X104583Y144756
X103876Y144049
X10529Y144049
X104583Y143342
X10529Y142635
X103561Y141516
X10529Y141221
X103168Y140514
X104583Y140514
X103876Y139807
X10529Y139807
X103168Y139099
X104583Y139099
X103876Y138392
X10529Y138392
X103168Y137685
X104583Y137685
X104583Y136271
X103876Y135564
X10529Y135564
X104312Y134955
X104583Y134857
X103051Y134696
X105051Y134695
X103876Y13415
X10505Y134
X10363Y133965
X104583Y133443
X103876Y132736
X10529Y132736
X104583Y132028
X103876Y131321
X10529Y131321
X103168Y130614
X104583Y130614
X103876Y129907
X10529Y129907
X103168Y1292
X104583Y1292
X103876Y128493
X10529Y128493
X103168Y127786
X104583Y127786
X10529Y127079
X103876Y127079
X103168Y126372
X104583Y126372
X103876Y125664
X10529Y125664
X103168Y124957
X104583Y124957
X103876Y12425
X10529Y12425
X104583Y123543
X103168Y123543
X10529Y122836
X103876Y122836
X104583Y122129
X103168Y122129
X10529Y121422
X103876Y121422
X104583Y120715
X103871Y120116
X10529Y120008
X104181Y119766
X103761Y119536
X103711Y118766
X105291Y118636
X103876Y117179
X104583Y116472
X103876Y115765
X10529Y115765
X10529Y114351
X104671Y113899
X10494Y113663
X103168Y113644
X10408Y113635
X1053Y113454
X103876Y112937
X104583Y112229
X10494Y11206
X1053Y11205
X104865Y11064
X103734Y11064
X1043Y110075
X10481Y10945
X103734Y108378
X104922Y108239
X104546Y108179
X104925Y107939
X1043Y107812
X104939Y107639
X104935Y107289
X103734Y107246
X104935Y106939
X1043Y106681
X105261Y106509
X103734Y106115
X104971Y106049
X103734Y104983
X104091Y104854
X103168Y104418
X104116Y104319
X103734Y103852
X1043Y103286
X103168Y103286
X105291Y102819
X103168Y102155
X1043Y102155
X104865Y101589
X103168Y101024
X103734Y100458
X104865Y100458
X105997Y100458
X107128Y100458
X105431Y101024
X106563Y101024
X107694Y101024
X107128Y101589
X105997Y101589
X106563Y102155
X107128Y102721
X105531Y102819
X10631Y10319
X105391Y103379
X10656Y10348
X1078Y10348
X10696Y10383
X105411Y104099
X105397Y104419
X10762Y10447
X105421Y104689
X106731Y104872
X105417Y104983
X107401Y105163
X106961Y105183
X105418Y105233
X106106Y106049
X106436Y106059
X105776Y106059
X107661Y106319
X107411Y106319
X106076Y106609
X107621Y106619
X10685Y107
X10655Y107
X10715Y107
X10685Y10735
X10655Y10735
X10715Y10735
X10685Y10765
X10715Y10765
X10655Y10765
X107756Y108389
X106526Y108429
X107426Y108439
X106046Y108449
X106921Y109346
X105951Y109456
X105546Y109519
X106481Y109546
X107701Y109656
X107341Y109766
X10632Y1099
X107511Y109959
X10596Y11007
X105431Y110075
X10592Y1109
X10555Y11091
X10631Y11097
X10714Y11205
X106826Y112068
X10651Y11208
X10623Y11208
X1059Y11209
X10571Y11231
X107039Y112393
X10696Y11302
X105701Y113283
X106963Y113684
X106281Y113863
X105824Y113977
X10738Y114026
X105587Y114732
X105997Y115058
X107367Y115117
X106376Y115225
X10673Y115506
X105997Y116472
X106729Y116805
X107372Y116849
X107671Y118276
X107461Y118686
X105997Y1193
X10673Y119336
X106376Y119959
X10673Y120645
X105997Y120715
X106376Y121599
X105997Y122129
X10673Y122476
X106376Y122959
X105997Y123543
X10673Y123668
X106376Y124439
X10673Y124745
X105997Y124957
X106376Y125799
X10673Y126194
X10738Y12625
X105997Y126372
X107174Y126453
X106376Y127219
X107411Y127786
X105997Y127786
X10673Y127984
X106376Y128494
X10719Y12887
X105997Y1292
X106376Y129756
X107411Y130614
X10673Y13095
X107411Y132028
X10673Y132038
X105997Y133443
X10724Y13356
X106704Y13415
X106051Y134698
X107051Y134707
X10772Y13495
X106704Y135564
X105997Y137685
X107411Y137685
X106704Y138392
X105997Y139099
X107411Y139099
X106704Y139807
X107411Y141928
X105997Y141928
X106704Y142635
X107411Y143342
X106704Y145463
X107411Y146171
X106704Y146878
X107411Y147585
X105997Y147585
X107111Y148316
X107411Y148999
X105997Y148999
X106704Y149706
X106011Y149966
X107411Y150413
X106704Y15112
X105997Y151827
X107411Y151827
X106704Y152535
X107411Y153242
X105997Y153242
X106704Y153949
X108118Y153949
X109532Y153949
X110239Y153242
X108825Y153242
X108118Y152535
X109532Y152535
X110239Y151827
X108825Y151827
X108118Y15112
X109532Y15112
X110239Y150413
X108825Y150413
X108118Y149706
X109532Y149706
X11029Y14965
X108825Y148999
X109532Y148292
X108Y14819
X110239Y147585
X108825Y147585
X108118Y146878
X109532Y146878
X110239Y146171
X108825Y146171
X108118Y145463
X109532Y145463
X110239Y144756
X108825Y144756
X108118Y144049
X109532Y144049
X110239Y143342
X108825Y143342
X108118Y142635
X109532Y142635
X110239Y141928
X108825Y141928
X109532Y141221
X110239Y140514
X108118Y139807
X110239Y139099
X108825Y139099
X108118Y138392
X110239Y137685
X108825Y137685
X110239Y136271
X108825Y136271
X110176Y136003
X108783Y135094
X110239Y134857
X108845Y134605
X10988Y134221
X108656Y133965
X10988Y133879
X108067Y133828
X10988Y133563
X110239Y133443
X108825Y133443
X109461Y132766
X108118Y132736
X108825Y132028
X108118Y131321
X109861Y130866
X108825Y130614
X109861Y130516
X108118Y129907
X110332Y129732
X10981Y12921
X108825Y1292
X10984Y12733
X108118Y127079
X11019Y12695
X11018Y12641
X108118Y125664
X109532Y125664
X110239Y124957
X108825Y124957
X108291Y12428
X10917Y124
X10939Y12339
X108118Y122836
X108121Y122546
X108661Y122536
X108371Y122356
X109001Y122276
X110239Y122129
X109531Y121846
X108931Y121786
X108118Y121422
X109091Y120976
X109936Y120372
X108118Y120008
X109038Y119786
X10789Y119691
X108621Y119526
X10916Y119524
X107891Y119376
X110239Y1193
X10969Y11924
X109144Y11902
X11028Y11896
X110027Y118953
X110151Y118336
X109221Y118236
X108041Y118236
X108791Y118126
X108351Y117986
X108051Y117956
X108Y1176
X10829Y11759
X10861Y11757
X10799Y1172
X10829Y11717
X109401Y116476
X108825Y116472
X109532Y115765
X108118Y115765
X1079Y114908
X109532Y114351
X109019Y11429
X10808Y114201
X10878Y114015
X109532Y112937
X108819Y112721
X110329Y112721
X108372Y112393
X109516Y112393
X108111Y110136
X109957Y110075
X109326Y109449
X109376Y108429
X109806Y108399
X108226Y107959
X108811Y107579
X109721Y107269
X108821Y107269
X109121Y107269
X109421Y107269
X107891Y106919
X109721Y106919
X108351Y106739
X108621Y106719
X107871Y106659
X109721Y106619
X108621Y106469
X109721Y106319
X108621Y106219
X108921Y105969
X109471Y105969
X108621Y105969
X109171Y105969
X109721Y105969
X107846Y105729
X10862Y10561
X109391Y104983
X107938Y104837
X108825Y104418
X109957Y104418
X1085Y104317
X109391Y103852
X10826Y103852
X108825Y103286
X109957Y102155
X10826Y101589
X109391Y101589
X109957Y101024
X108825Y101024
X10826Y100458
X109391Y100458
X110522Y100458
X110522Y101589
X112361Y101623
X110522Y102721
X112361Y103037
X11069Y10317
X11203Y10317
X112361Y104451
X110522Y104983
X11049Y10641
X11241Y10742
X11196Y10755
X11241Y10778
X1105Y10794
X11195Y10795
X1124Y10814
X110646Y109449
X11204Y110095
X11246Y110097
X112361Y111522
X11261Y11189
X110917Y11207
X111433Y112393
X110947Y112937
X112361Y112937
X11157Y11297
X11238Y11331
X111097Y11366
X11194Y11401
X110947Y114351
X11196Y115246
X112751Y115246
X111583Y11667
X111847Y117133
X112361Y117179
X11151Y11739
X1121Y11797
X11181Y11798
X111511Y117986
X110351Y118346
X11241Y118447
X111587Y118451
X1123Y11897
X11167Y11926
X11152Y1197
X11154Y11994
X11181Y11995
X11209Y11995
X111654Y120715
X110947Y121422
X112361Y121422
X111654Y122129
X110947Y122836
X112361Y122836
X111654Y123543
X1127Y12369
X11269Y12465
X111278Y125123
X11269Y12563
X112361Y125664
X110947Y125664
X11046Y12641
X11074Y12641
X112617Y12652
X112751Y127008
X110777Y127012
X11132Y127233
X112481Y127324
X11136Y12822
X110947Y128493
X112571Y12863
X111492Y129625
X112462Y130186
X11096Y130188
X112628Y13076
X110738Y131102
X112577Y13145
X111904Y132263
X111161Y133056
X11244Y13314
X111161Y133336
X111161Y133656
X110947Y13415
X112781Y134859
X111011Y134916
X110388Y135341
X110936Y135661
X11196Y136003
X111654Y136271
X112361Y136978
X110947Y136978
X111654Y137685
X110947Y138392
X1125Y138897
X1122Y138897
X11258Y13925
X11223Y139361
X110947Y139807
X11224Y139837
X11258Y13999
X11224Y140313
X112586Y140539
X11224Y140917
X110947Y141221
X11223Y141447
X112586Y141659
X11224Y141963
X110947Y142635
X11225Y142815
X11224Y143533
X110947Y144049
X11223Y144252
X11222Y14497
X110947Y145463
X11222Y145684
X11222Y146397
X110947Y146878
X11227Y146883
X111654Y147585
X11048Y14823
X11167Y14916
X11123Y14981
X11282Y15084
X11209Y1509
X110947Y15112
X11203Y15194
X110947Y152535
X11194Y15285
X11206Y15352
X110947Y153949
X11193Y15424
X11378Y15426
X11443Y154141
X11298Y15371
X11342Y15342
X11384Y15283
X11288Y15282
X11523Y15262
X11477Y15262
X11448Y1522
X11519Y15218
X11373Y15196
X1152Y15128
X1144Y15109
X1136Y15084
X11518Y15025
X11436Y15002
X11441Y14941
X11528Y149395
X11393Y1492
X1153Y149002
X11431Y14852
X11401Y1476
X11312Y14758
X11429Y14746
X11491Y146903
X11425Y146898
X11359Y146893
X11293Y146888
X11468Y14408
X11464Y14372
X11512Y14372
X112929Y143468
X113826Y143339
X113866Y142859
X113856Y142595
X115141Y142456
X114444Y14227
X115121Y142136
X114464Y141939
X113636Y141769
X113266Y141619
X114511Y141506
X1146Y141076
X113436Y141069
X114995Y141019
X115261Y141016
X114605Y14085
X113586Y140669
X114289Y140659
X113074Y140429
X113736Y139919
X115237Y139854
X115058Y13973
X11408Y1396
X11522Y13957
X113587Y139538
X11295Y13931
X1145Y13919
X11284Y138901
X1132Y138898
X11356Y138895
X11392Y138892
X11464Y138485
X113775Y136978
X115189Y136978
X115331Y136559
X113068Y136271
X114482Y136271
X113851Y136003
X115226Y136003
X113971Y134869
X113721Y134869
X114911Y133599
X11414Y13345
X11385Y13345
X1144Y13345
X113068Y133443
X113311Y133139
X115189Y132736
X113775Y132736
X114482Y132028
X11336Y13179
X11311Y13145
X115201Y130289
X114443Y130257
X113801Y129416
X11304Y128773
X115143Y128595
X113687Y128565
X113976Y128548
X113822Y128417
X113056Y128342
X113965Y128273
X113689Y128267
X113822Y127244
X114001Y127149
X113689Y127094
X11397Y126949
X114497Y125057
X113068Y124957
X114491Y124163
X113068Y123543
X114484Y12327
X114477Y122376
X113068Y122129
X114471Y121482
X113068Y120715
X114464Y120588
X114458Y119694
X114477Y11882
X113068Y117886
X11449Y117766
X114483Y117205
X113151Y116326
X11322Y11523
X114495Y115099
X11299Y11414
X11499Y11396
X113068Y113644
X113794Y112887
X113981Y112791
X113627Y112769
X113846Y112622
X115121Y112576
X113646Y112569
X114481Y112096
X113983Y111599
X115189Y111522
X114497Y111459
X113984Y111346
X114515Y110535
X113296Y110291
X115189Y110108
X11356Y109879
X114534Y109612
X113068Y109401
X115189Y108694
X114497Y108688
X113068Y107987
X114487Y107971
X115211Y107822
X113775Y105865
X113068Y105158
X114482Y105158
X113775Y104451
X113068Y103744
X115189Y103037
X113775Y103037
X114482Y10233
X113068Y10233
X113775Y101623
X115189Y101623
X113068Y100916
X114482Y100916
X117311Y100916
X115896Y100916
X116603Y101623
X117311Y10233
X115896Y10233
X116603Y103037
X117311Y103744
X11629Y1044
X116603Y104451
X11712Y10457
X117501Y10503
X116603Y105865
X117311Y106573
X11616Y107128
X116603Y10728
X11657Y10783
X117607Y10783
X116981Y108396
X117701Y109116
X115896Y109401
X116603Y110108
X117232Y110128
X115896Y110815
X117311Y110815
X116603Y111522
X116701Y112116
X117401Y112216
X115896Y112229
X115441Y112896
X11549Y11394
X117201Y114016
X116561Y114016
X116881Y114016
X11737Y115497
X11692Y11564
X11665Y11565
X116451Y115866
X115951Y115876
X11619Y1159
X117088Y116293
X116581Y116376
X116311Y116386
X115931Y116466
X115825Y116697
X116971Y116986
X117211Y116986
X116731Y117016
X116002Y117205
X116481Y117216
X117281Y117666
X117031Y117686
X116781Y117696
X116201Y117816
X11659Y118276
X116841Y118356
X117101Y118436
X117351Y118446
X117201Y118806
X117471Y118826
X116167Y119004
X11654Y11941
X117211Y119459
X116167Y119909
X116851Y119949
X116814Y12027
X115896Y120715
X116207Y120877
X115525Y122257
X115525Y123492
X115525Y123875
X116283Y124633
X116888Y125238
X11644Y12544
X117563Y125913
X117041Y126366
X116631Y126366
X116839Y126369
X117001Y126976
X115481Y126976
X116761Y126986
X116521Y127016
X116271Y127026
X115988Y127046
X116331Y127316
X115982Y127365
X116751Y128799
X11655Y128802
X116951Y128802
X116249Y129865
X117147Y130164
X116821Y130169
X115701Y130339
X116971Y130369
X116651Y131409
X116691Y131789
X117311Y132028
X116621Y132579
X116611Y133279
X115861Y133599
X117121Y133599
X117441Y133599
X117751Y134639
X115941Y134869
X11653Y135661
X115851Y136376
X117211Y136586
X116603Y136978
X116201Y137089
X115656Y137267
X117769Y137616
X116422Y138296
X117731Y138426
X117441Y138686
X117151Y138686
X116321Y138686
X11691Y138928
X11632Y1394
X116338Y139964
X116116Y139964
X116951Y139986
X117537Y140072
X116161Y140576
X116401Y140626
X117011Y140696
X117536Y140797
X115635Y140805
X11589Y14152
X11621Y14152
X11708Y14153
X11755Y14154
X11651Y14154
X11783Y14154
X11733Y14154
X1168Y14154
X11607Y14168
X11647Y14175
X11667Y14186
X11695Y14186
X11752Y14186
X11722Y14186
X11629Y14187
X11596Y14187
X1168Y14236
X11654Y14237
X11627Y14237
X11714Y14238
X11745Y14239
X11776Y1424
X11595Y14249
X1177Y14278
X11705Y1428
X11667Y1428
X11596Y14282
X11735Y14282
X11629Y14282
X11755Y14305
X11703Y14306
X11729Y14308
X11592Y14308
X11667Y14309
X11641Y1431
X11618Y14311
X11757Y1434
X1172Y14341
X11684Y14341
X11622Y14342
X11653Y14342
X11592Y14344
X11592Y14372
X11713Y14372
X11626Y14372
X11656Y14372
X11742Y14372
X11685Y14372
X11773Y14373
X11612Y14407
X11678Y14408
X1177Y14408
X11586Y14408
X11647Y14408
X1171Y14408
X1174Y14409
X1155Y144469
X117507Y144892
X117188Y144966
X115761Y144996
X11601Y14506
X11671Y145162
X117459Y145189
X116712Y145372
X1162Y145401
X11752Y145709
X117252Y145822
X115554Y145862
X116697Y14599
X116209Y146027
X117229Y146086
X117475Y14617
X116698Y146228
X11735Y14644
X11669Y14646
X11735Y14677
X11594Y1469
X11557Y146908
X11656Y14731
X115828Y147542
X116102Y147548
X115415Y147548
X11674Y14779
X11749Y1481
X1177Y14824
X116838Y148274
X11548Y14838
X11572Y14838
X11621Y14839
X11767Y14891
X11612Y14899
X11587Y14901
X11613Y14926
X11587Y14926
X11669Y149331
X11768Y14969
X1161Y149818
X11783Y15028
X11657Y15032
X11658Y15065
X11781Y15121
X11659Y151405
X1178Y15176
X11684Y15273
X1164Y1532
X11566Y154141
X1172Y15423
X12012Y15444
X118438Y15444
X118758Y15443
X119098Y15442
X11799Y15405
X11801Y15333
X12019Y15318
X119328Y152919
X1198Y152881
X11806Y15267
X118698Y152578
X12026Y15248
X1189Y15159
X12024Y151405
X11854Y1511
X11787Y15069
X11854Y15032
X11951Y1503
X12019Y15029
X11982Y149827
X11824Y14958
X11899Y149395
X11985Y14924
X11958Y14924
X11819Y14905
X119Y149002
X11984Y148985
X11958Y14898
X118Y14838
X12007Y14837
X11931Y148328
X119065Y148321
X11796Y14816
X1201Y14751
X11902Y14749
X11937Y14748
X11965Y14748
X11822Y14738
X11932Y146915
X11962Y146907
X11902Y146905
X11992Y1469
X12022Y146892
X11795Y14679
X118534Y146578
X119175Y146527
X120067Y146473
X11795Y1464
X11874Y146263
X119069Y146233
X119686Y146197
X117977Y146026
X118704Y145906
X117979Y145623
X119436Y145609
X118814Y145571
X118545Y14537
X11799Y14531
X119771Y144796
X119771Y144246
X11804Y14408
X11839Y14408
X119421Y144026
X119791Y144016
X11821Y14389
X11803Y14372
X11838Y14368
X11788Y14341
X11823Y1434
X11848Y14338
X11787Y14306
X11818Y14305
X11846Y14302
X11819Y14274
X11794Y14263
X11842Y14253
X1181Y1424
X120111Y142218
X11819Y14187
X11784Y14187
X11847Y14187
X11978Y14162
X11999Y14162
X11817Y14157
X11846Y14156
X11915Y1412
X118931Y141199
X118771Y140999
X119011Y140806
X119181Y140626
X117991Y140556
X118331Y140036
X118791Y139676
X118381Y139606
X119186Y139569
X118201Y139256
X118481Y139256
X12Y138897
X11912Y138897
X11957Y138892
X118Y13884
X118501Y138426
X118562Y137898
X117901Y137896
X119611Y137896
X118091Y137646
X118241Y136586
X119181Y136586
X120243Y134856
X117966Y134819
X118531Y134699
X118381Y133599
X118725Y133443
X120139Y133443
X119432Y132736
X118441Y132399
X117861Y132179
X118725Y132028
X120139Y132028
X117911Y131559
X120102Y13147
X119432Y131321
X117998Y128857
X118332Y128843
X118638Y128842
X119278Y128828
X119919Y128813
X119611Y12696
X120255Y12696
X118881Y12696
X118229Y12658
X11852Y12431
X11857Y124
X11834Y12372
X11823Y12343
X11899Y12335
X11875Y1231
X119416Y122816
X118375Y1228
X119005Y122795
X118Y12277
X11919Y121742
X118221Y121736
X119817Y121729
X11847Y12171
X11872Y12168
X11905Y12149
X11987Y12149
X1196Y12144
X11934Y12144
X11971Y12108
X119984Y120922
X12033Y120914
X120141Y120506
X120131Y120206
X119506Y120198
X119191Y120198
X117881Y120026
X118371Y119786
X118631Y119786
X118901Y119776
X12006Y11977
X119525Y119625
X118526Y119289
X117841Y119286
X118906Y11912
X118928Y118826
X119623Y116623
X118493Y11662
X117931Y116058
X119177Y115212
X117852Y114628
X118626Y114569
X118368Y114406
X120139Y113644
X119921Y113536
X119601Y113536
X118438Y112294
X118725Y112229
X120278Y112024
X119488Y111594
X118018Y111522
X118725Y110815
X120139Y110815
X119261Y109356
X118018Y108694
X118644Y10783
X118829Y107287
X118018Y10728
X118518Y106572
X118018Y105865
X11912Y10463
X12017Y10389
X118725Y103744
X119432Y103037
X118018Y103037
X120139Y10233
X118725Y10233
X119432Y101623
X118018Y101623
X120139Y100916
X118725Y100916
X121553Y100916
X12226Y101623
X120846Y101623
X121553Y10233
X120846Y103037
X121629Y103942
X12276Y104024
X12226Y104451
X120411Y107866
X121361Y107866
X120861Y107866
X122791Y108744
X120461Y108816
X121121Y108816
X121601Y109116
X122785Y109527
X120366Y110128
X121539Y1113
X120846Y111522
X121553Y112229
X122537Y112298
X120488Y112674
X120846Y112937
X1222Y11342
X12236Y11356
X120866Y113609
X12218Y11366
X12237Y11378
X12218Y11386
X121356Y113899
X121036Y113929
X120696Y113949
X12238Y11398
X121651Y114366
X121591Y114766
X122151Y115006
X121921Y115006
X122401Y115006
X122091Y115206
X122311Y115206
X12254Y11521
X122791Y115676
X122701Y115856
X120644Y116623
X122278Y116643
X121871Y116646
X122561Y116646
X120974Y118716
X121712Y118716
X122686Y118716
X120489Y119201
X121245Y11966
X120549Y119774
X120899Y119798
X122531Y119806
X1216Y119825
X121871Y119836
X122131Y119836
X121709Y120198
X121708Y120505
X12108Y120513
X120765Y120513
X121191Y120916
X12057Y12092
X122221Y121096
X121561Y121096
X12109Y1213
X121067Y121542
X12197Y12158
X1226Y12158
X120544Y121627
X121337Y121632
X121681Y121716
X122651Y122086
X122021Y122086
X120461Y122096
X121401Y122096
X122641Y122386
X120441Y122389
X122651Y122726
X121551Y122766
X121891Y122769
X122241Y122793
X121215Y122813
X120592Y122925
X120975Y123075
X121176Y123288
X120416Y12366
X1207Y1237
X12269Y12696
X121515Y12696
X120435Y128776
X120692Y128776
X121348Y128777
X121113Y128777
X120908Y128777
X121894Y128849
X122382Y129013
X122391Y129666
X122292Y130281
X121952Y1315
X120998Y131503
X121553Y132028
X122219Y132081
X121371Y132323
X120846Y132736
X121553Y133443
X121841Y133509
X122802Y134809
X122541Y134826
X121112Y134868
X120901Y135336
X121271Y136306
X120981Y136586
X122448Y136775
X12233Y137641
X121331Y137896
X122521Y138166
X122251Y138166
X12208Y13888
X12156Y138884
X12104Y138888
X12052Y138892
X12264Y138954
X12264Y139496
X12264Y140039
X12115Y14056
X12264Y140581
X120864Y1411
X12264Y141124
X120786Y141419
X12264Y141666
X120785Y14216
X12264Y142209
X12264Y142751
X12192Y143
X12264Y143
X12192Y14323
X12082Y14358
X12134Y14365
X121047Y143659
X12264Y143836
X12048Y14416
X1214Y14433
X12264Y144379
X12103Y1448
X12044Y14481
X12264Y145464
X12264Y145941
X1216Y14607
X12264Y146418
X1208Y14683
X12265Y146897
X12235Y146899
X12205Y146902
X12175Y146905
X12145Y146908
X12175Y14738
X12063Y14786
X12202Y14788
X12133Y14789
X12056Y14812
X1217Y14835
X12238Y14845
X12185Y14885
X12048Y14929
X12235Y14932
X12169Y14937
X12124Y150011
X12057Y150059
X12256Y15015
X12248Y15055
X12037Y15105
X12264Y15121
X1212Y15133
X12159Y15141
X12162Y15199
X1212Y15212
X12197Y15273
X12049Y15289
X12054Y15322
X12242Y15339
X12091Y15418
X12207Y15418
X12073Y15442
X12386Y15428
X12516Y15424
X12325Y15417
X12305Y15349
X12462Y15348
X1239Y15338
X12474Y15305
X12292Y15252
X12478Y15241
X12319Y15098
X12382Y15085
X12432Y15081
X12479Y15078
X12298Y15056
X12324Y15022
X12303Y14979
X12364Y14853
X12408Y14843
X123285Y147036
X12442Y14697
X12521Y14669
X123269Y145974
X12502Y14525
X12302Y14455
X12469Y14447
X12303Y14398
X12383Y14325
X12435Y14322
X12514Y14317
X12308Y14311
X12479Y14303
X12355Y14286
X12433Y14279
X12464Y14255
X12525Y14255
X12457Y14203
X12522Y14203
X12514Y14105
X12441Y14104
X12318Y14091
X12374Y14053
X12437Y1405
X12322Y1401
X12449Y13987
X12379Y13936
X12437Y13932
X12324Y13921
X124829Y138392
X12465Y13768
X125201Y137576
X123682Y137245
X125089Y136978
X123087Y136884
X123814Y136837
X122921Y136306
X124382Y136271
X124404Y135665
X123561Y135661
X124672Y135336
X124461Y134766
X123574Y134125
X125131Y134096
X122967Y133443
X124191Y133336
X124191Y132106
X125251Y132056
X124581Y131436
X124851Y131436
X12525Y131198
X124191Y130706
X12526Y130446
X123439Y130321
X122951Y130256
X123011Y129666
X124271Y129556
X124271Y128826
X124011Y128777
X124024Y12696
X124913Y12696
X122971Y122681
X12466Y122555
X123318Y121578
X12384Y12147
X1248Y12146
X12287Y12112
X12348Y12107
X12473Y12102
X12368Y12058
X1248Y12058
X123047Y120356
X123025Y119996
X125011Y118916
X123891Y118716
X124841Y118716
X124681Y118476
X122882Y11665
X12359Y116349
X1241Y1163
X12435Y1163
X1246Y1163
X12405Y1161
X1243Y1161
X12455Y1161
X125015Y116082
X123402Y116046
X1244Y1159
X122931Y115826
X123071Y115326
X123233Y113935
X12391Y113656
X123335Y113422
X125187Y111134
X124068Y110809
X123294Y110055
X124068Y109814
X125218Y109573
X123526Y109251
X124068Y108717
X125189Y107915
X122915Y107849
X123557Y107849
X124068Y107217
X124068Y106088
X125089Y105865
X125089Y104451
X125089Y103037
X124382Y10233
X122967Y10233
X123675Y101623
X125089Y101623
X124382Y100916
X122967Y100916
X127126Y100477
X125796Y100916
X127833Y101184
X127126Y101892
X125796Y10233
X127126Y103306
X125796Y103744
X126086Y103919
X127086Y103919
X127833Y104013
X127511Y104466
X12553Y104468
X126086Y105119
X127086Y105119
X125796Y105158
X127126Y106134
X126086Y106519
X127561Y106816
X127186Y106919
X12575Y10716
X12576Y10752
X125796Y107987
X127186Y108019
X125739Y109324
X126503Y110108
X125796Y110815
X12721Y110815
X125955Y112023
X126425Y112076
X126823Y112908
X127692Y113787
X125371Y114813
X125476Y11504
X12547Y115477
X126257Y115956
X125886Y116235
X126351Y116556
X127411Y116766
X12685Y11696
X12707Y11711
X125911Y117646
X126391Y117976
X125751Y117976
X126598Y118462
X126822Y118548
X126886Y118795
X127671Y119276
X125751Y119374
X127429Y124852
X126411Y125766
X125941Y126236
X12702Y126281
X126644Y126456
X126885Y126486
X126865Y126738
X126716Y126959
X126716Y127229
X126781Y127506
X127381Y127616
X125551Y127666
X125341Y127666
X127381Y127996
X127501Y128836
X125804Y129173
X126041Y129306
X126281Y129503
X127051Y129846
X126421Y129956
X126711Y129956
X127101Y130306
X126111Y130436
X12771Y130444
X127101Y131166
X126111Y131846
X127706Y131953
X127097Y131955
X127101Y132876
X126111Y133116
X127711Y133266
X12666Y133311
X126225Y133746
X126895Y134052
X126801Y134496
X12538Y134591
X126318Y134642
X127691Y134746
X126801Y134776
X12652Y134901
X127015Y135339
X127348Y135661
X125796Y136271
X126503Y136978
X125421Y137356
X125796Y137685
X12721Y137685
X126503Y138392
X12551Y13854
X12776Y138788
X125687Y13925
X12777Y139253
X126459Y139482
X12777Y139746
X126575Y140138
X12778Y140278
X127316Y140339
X127506Y141069
X12775Y14165
X12775Y1423
X12775Y1431
X12775Y1439
X12548Y14445
X12774Y144564
X12633Y14458
X12723Y14506
X12777Y145097
X12627Y1453
X125591Y145311
X12777Y145689
X12693Y14608
X12605Y14616
X12777Y146277
X125485Y146391
X12777Y146865
X12693Y14696
X12592Y14697
X12774Y147793
X12774Y14817
X12653Y14819
X1271Y14936
X1278Y15009
X12651Y15042
X1271Y15052
X12563Y15062
X12626Y15192
X12644Y15245
X12576Y15251
X12626Y15284
X1259Y15424
X12655Y15432
X12898Y15422
X1296Y15385
X12817Y15383
X12894Y15349
X13033Y15345
X12821Y15298
X12928Y15283
X12825Y1519
X12946Y15164
X13032Y15153
X129971Y151201
X129961Y150947
X12833Y1507
X12993Y1505
X12795Y15047
X1303Y15037
X12904Y15004
X13015Y15004
X1299Y14982
X12952Y14943
X12882Y14935
X13003Y14858
X12986Y14832
X12895Y14827
X12976Y147793
X1303Y147792
X12922Y147778
X12868Y147764
X1284Y14715
X12833Y14655
X12921Y14645
X12874Y14611
X12885Y14567
X12827Y14541
X128288Y144499
X128136Y144178
X129391Y143913
X12836Y14388
X130185Y143803
X129646Y143259
X129656Y142839
X129666Y142569
X12836Y142486
X12921Y1421
X130071Y141876
X129738Y141844
X12978Y14146
X12866Y14128
X127861Y140881
X129728Y140554
X12847Y14031
X130101Y140196
X130102Y139947
X129706Y139619
X12945Y1396
X12915Y13955
X1285Y13928
X12861Y138818
X12821Y138811
X130176Y138524
X127917Y138392
X1291Y13819
X129694Y138018
X128975Y137299
X12841Y136734
X129573Y136622
X130164Y136477
X127885Y13621
X130087Y135665
X12861Y135665
X129351Y135664
X129765Y135343
X129029Y135342
X128281Y135336
X129711Y134926
X129318Y134896
X130181Y134756
X128761Y133826
X12981Y133125
X129287Y132601
X13002Y1326
X128381Y131953
X128703Y13193
X130131Y129136
X129621Y128968
X128931Y128376
X128671Y128376
X130148Y128109
X129621Y127786
X129621Y127296
X12793Y127283
X130161Y127126
X128491Y127026
X128191Y127026
X128021Y126456
X129143Y126455
X130229Y12642
X128481Y125776
X127961Y125596
X129425Y119658
X128361Y118256
X128291Y117956
X130292Y117841
X128291Y117696
X129942Y117452
X12992Y116628
X12968Y116626
X129472Y116411
X13006Y115931
X128901Y115838
X129179Y11583
X129511Y115816
X129511Y114707
X128562Y114629
X12899Y11403
X13011Y114
X129331Y112937
X127917Y112937
X130038Y112229
X128624Y112229
X129331Y111522
X127917Y111522
X128624Y110815
X130038Y110815
X128376Y109231
X12915Y10725
X129954Y103306
X129954Y101892
X129247Y101184
X129954Y100477
X12854Y100477
X131369Y100477
X132783Y100477
X132076Y101184
X130661Y101184
X131369Y101892
X132783Y101892
X132076Y102599
X130661Y102599
X132783Y103306
X131369Y103306
X13035Y10725
X13275Y10725
X13155Y1073
X132698Y109197
X130579Y109248
X131453Y110815
X130746Y111522
X13216Y111522
X131453Y112229
X130746Y112937
X13216Y112937
X132432Y114076
X13185Y114077
X13122Y1143
X132731Y114669
X131472Y114677
X130361Y114679
X130585Y1156
X132075Y11573
X132078Y11595
X13191Y11606
X132078Y116173
X13191Y11629
X130585Y116456
X13191Y11649
X13242Y11734
X130772Y11736
X13243Y11787
X130512Y118359
X130424Y118614
X13199Y118755
X130416Y118858
X130421Y119116
X132197Y120442
X131601Y123492
X132113Y124004
X132509Y124399
X131251Y125206
X131585Y125404
X130468Y12543
X132052Y125877
X132525Y126345
X130479Y126666
X131778Y127726
X131161Y128096
X13235Y128766
X131811Y128766
X131225Y129185
X132461Y129456
X131981Y129456
X131241Y130216
X131751Y130256
X132691Y130329
X130379Y13153
X132179Y131575
X131965Y132346
X13076Y1326
X131724Y133115
X131285Y133128
X130552Y133131
X132074Y134653
X131338Y134653
X132277Y135592
X1316Y13632
X130871Y136449
X132155Y136558
X132401Y136923
X130721Y137034
X13157Y137144
X130359Y137408
X131509Y137822
X131141Y13819
X132225Y138538
X130499Y138823
X13196Y139433
X132831Y139466
X132171Y139946
X131336Y140026
X131884Y140027
X131861Y140346
X130411Y140576
X132331Y140666
X132821Y140696
X131581Y140716
X130781Y140776
X1304Y14095
X13125Y1411
X130591Y141236
X13266Y141493
X1323Y141498
X13194Y141504
X13167Y141507
X130951Y141656
X13181Y141702
X13212Y141711
X13243Y141719
X13281Y141728
X13167Y141979
X13194Y141982
X13263Y141985
X13226Y141985
X130971Y142236
X130371Y142286
X130921Y142486
X13168Y142533
X132Y142539
X13232Y142545
X13264Y14255
X1318Y142842
X1321Y142847
X1324Y142853
X1327Y142873
X13255Y143181
X13232Y143186
X13197Y143206
X1317Y14325
X13195Y143486
X13231Y143489
X13266Y143492
X1317Y14355
X13095Y1436
X132Y14375
X13276Y143811
X13169Y143814
X13252Y143819
X13228Y143828
X130405Y143909
X13189Y14396
X13214Y144009
X13267Y144035
X13242Y144049
X13167Y14406
X130418Y14418
X131162Y144639
X13188Y14484
X132402Y144851
X132739Y144853
X131987Y145313
X130866Y145313
X13276Y1456
X132031Y145676
X13203Y14593
X13272Y14599
X132036Y146616
X131236Y146616
X13281Y14696
X13202Y14708
X13086Y14718
X13202Y14755
X131711Y148179
X131951Y14879
X1309Y14901
X132011Y14903
X131171Y14905
X1327Y1491
X13163Y14953
X13116Y14989
X132061Y1499
X132161Y15052
X13093Y1506
X13144Y15082
X13182Y15082
X13121Y15088
X13242Y1511
X13278Y15119
X13191Y15119
X131224Y151208
X13098Y15163
X13178Y15175
X13259Y1518
X131181Y15202
X13205Y1522
X13121Y15264
X1322Y15294
X132Y15305
X131161Y153129
X131855Y15388
X130861Y153882
X13116Y1539
X1322Y15415
X13181Y15444
X13264Y15449
X13309Y1545
X1342Y15446
X13366Y15434
X13339Y15412
X13517Y153903
X13465Y153901
X13368Y15386
X13473Y15321
X13372Y15317
X13338Y15294
X1348Y1527
X13356Y15261
X13479Y15219
X13373Y15204
X1353Y15189
X13473Y15169
X13355Y15167
X13525Y15158
X1332Y15144
X13504Y15139
X13353Y151311
X13477Y151282
X1351Y15106
X13479Y151047
X13352Y151032
X13485Y15043
X13293Y15031
X13476Y15006
X1335Y15002
X13381Y14999
X132921Y149857
X13519Y14963
X13354Y14958
X132901Y149529
X13477Y149235
X13449Y14911
X13354Y14907
X133093Y14845
X13504Y14841
X13458Y14839
X13367Y14838
X13288Y14806
X13464Y14784
X13286Y14746
X13362Y14742
X13532Y14741
X13469Y14738
X13363Y14696
X13461Y14691
X13456Y146436
X13447Y14589
X13425Y145568
X135141Y145446
X134561Y145426
X13288Y1454
X13359Y14534
X133821Y144906
X13385Y14411
X13419Y14405
X13342Y144043
X13317Y14404
X13292Y144037
X13365Y144035
X135251Y143906
X133Y143802
X13424Y1438
X13324Y143794
X13348Y143786
X13399Y143786
X13372Y143777
X13425Y143497
X1339Y143497
X13361Y143495
X13301Y143495
X13332Y143492
X13417Y143209
X13351Y143206
X13383Y143201
X13317Y143192
X13285Y143186
X13331Y142867
X13364Y142864
X13429Y142864
X13394Y142861
X132986Y142819
X13357Y142567
X13326Y142562
X13389Y142556
X13295Y142556
X13421Y142545
X13333Y14199
X13365Y141985
X13397Y141979
X13429Y141974
X13301Y141974
X13415Y141744
X13383Y141741
X13351Y141739
X13319Y141736
X13302Y141515
X13335Y141507
X13367Y141498
X13429Y141496
X13401Y141493
X13491Y14122
X13469Y14122
X13461Y14082
X133364Y140788
X133771Y140466
X134011Y140136
X13505Y1396
X134361Y139586
X133366Y139466
X13415Y13885
X13488Y138839
X132951Y138528
X13375Y1382
X134Y1382
X1332Y1375
X134893Y137321
X133674Y136988
X135192Y136756
X133166Y13648
X133885Y136464
X135028Y135931
X134251Y135671
X13307Y13565
X13348Y134652
X13389Y13464
X13324Y134631
X13469Y13457
X134771Y133466
X134101Y133466
X134451Y133466
X133901Y131916
X133671Y131916
X133468Y131915
X134471Y131726
X134901Y131016
X134941Y130696
X133011Y130299
X133951Y130279
X134521Y130106
X134959Y129959
X134391Y129666
X134977Y129644
X133691Y129446
X133691Y129076
X134697Y128342
X134291Y128162
X134266Y127762
X135247Y125986
X135014Y125986
X133286Y125966
X133526Y125961
X133766Y125961
X134135Y125926
X13448Y125923
X133315Y125143
X13413Y12504
X134514Y124506
X133637Y124506
X133735Y12398
X134238Y12398
X13378Y123454
X134429Y123454
X133643Y122923
X134274Y122923
X133153Y122425
X133394Y122402
X13364Y122395
X134367Y12239
X133735Y121868
X13314Y121348
X133032Y120845
X133082Y120338
X135181Y120336
X133821Y120335
X132903Y119844
X13522Y11777
X134636Y117619
X134321Y117076
X13368Y116
X13368Y11566
X133416Y115538
X13398Y11548
X135101Y114979
X133934Y114674
X135151Y114669
X13422Y1141
X13364Y11409
X133096Y114085
X13491Y11402
X134988Y112937
X133574Y112937
X134281Y112229
X132867Y112229
X133574Y111522
X134988Y111522
X134281Y110815
X132867Y110815
X13395Y1073
X1352Y1073
X134197Y103306
X134904Y102599
X13349Y102599
X134197Y101892
X134904Y101184
X13349Y101184
X134197Y100477
X137025Y100477
X135611Y100477
X137733Y101184
X136318Y101184
X137025Y101892
X135611Y101892
X137733Y102599
X136318Y102599
X137025Y103306
X135611Y103306
X1376Y10735
X13635Y10735
X13536Y109146
X137123Y109197
X135695Y110815
X13711Y110815
X136402Y111522
X137817Y111522
X135695Y112229
X13711Y112229
X136402Y112937
X137817Y112937
X13731Y11399
X1366Y11401
X13611Y11401
X1354Y11402
X137817Y114351
X136351Y114669
X137551Y114689
X136271Y114959
X13536Y11498
X135641Y115776
X136371Y115895
X137017Y115949
X137628Y116209
X136686Y116469
X136436Y116469
X13621Y11647
X136831Y116666
X136336Y116669
X136586Y116669
X137817Y117179
X13764Y11735
X13711Y117886
X13663Y1181
X13744Y118561
X136021Y118566
X136402Y118593
X136872Y119128
X136281Y119719
X137314Y119754
X13681Y12025
X13611Y120338
X137581Y120676
X136518Y121348
X137724Y121348
X135444Y121868
X13603Y12187
X13703Y12187
X135765Y12239
X136511Y12239
X137433Y12239
X135941Y122923
X137027Y122923
X137526Y123454
X135701Y123454
X136506Y123454
X13691Y12398
X135888Y12398
X137393Y124506
X1363Y124506
X135894Y12504
X136863Y12504
X135506Y125986
X136881Y125989
X136556Y126096
X136336Y126241
X137177Y127938
X135396Y127949
X136462Y127949
X13545Y128367
X136883Y128369
X136201Y128369
X137618Y128378
X137817Y129907
X13616Y130293
X137111Y130316
X136501Y130346
X136781Y130346
X137101Y131569
X136161Y131576
X136867Y132266
X136074Y132266
X136873Y132615
X136096Y133404
X136892Y133406
X136344Y134808
X137501Y135566
X135679Y135681
X137751Y135931
X136467Y135931
X136272Y136756
X137465Y136756
X13628Y137321
X137441Y137321
X137066Y137659
X135666Y137659
X135651Y138206
X135881Y138206
X13723Y138835
X1364Y13885
X13565Y13885
X13714Y13918
X13755Y13922
X13592Y139605
X13761Y13968
X13659Y139715
X137Y140215
X13675Y14035
X13724Y14078
X136686Y141019
X13625Y14139
X1358Y14144
X13555Y14145
X13728Y14147
X13625Y14159
X13575Y14196
X13641Y14221
X13725Y14224
X13723Y14262
X13692Y14287
X13674Y14305
X13717Y14315
X13624Y14344
X13595Y143648
X13654Y14381
X135491Y143886
X135661Y144056
X13759Y1445
X13576Y1446
X13561Y14484
X13748Y145
X13751Y14572
X13689Y14629
X13755Y14641
X13616Y14674
X13724Y14686
X13538Y14693
X13714Y1473
X1376Y14734
X13603Y147835
X13544Y14784
X13704Y14784
X13649Y14831
X1355Y1486
X13556Y149
X1356Y149281
X13663Y14931
X13758Y14956
X13645Y149643
X1356Y149991
X13647Y15
X13625Y15059
X1358Y15065
X13546Y15105
X13545Y15134
X13675Y15135
X13722Y1517
X13684Y1519
X13755Y15213
X13646Y15239
X13602Y15245
X13697Y15245
X13682Y15261
X1365Y15262
X13619Y15262
X13584Y15276
X13715Y15323
X13717Y15411
X13572Y15438
X13536Y15439
X13688Y154481
X1365Y154489
X13617Y154501
X13944Y15413
X13867Y15407
X1393Y15355
X139938Y153242
X1392Y15276
X13789Y15262
X13946Y15191
X139938Y151827
X13888Y15106
X14013Y15048
X13879Y15021
X13922Y14979
X13831Y14949
X13997Y14922
X13844Y14867
X13789Y14858
X13918Y14837
X139938Y147585
X138Y1475
X138Y14685
X13928Y14669
X138Y1462
X139938Y146171
X13853Y14569
X138Y14555
X139231Y145463
X138Y1449
X139938Y144756
X138Y14425
X139231Y144049
X13853Y14387
X138Y1436
X139938Y143342
X138Y14295
X13853Y14282
X139231Y142635
X138Y1423
X139938Y141928
X138Y141
X139938Y140514
X138Y14035
X139231Y139807
X138Y1397
X13859Y13924
X138Y1389
X13872Y13855
X139661Y138516
X13851Y13779
X138586Y137321
X140061Y137316
X138825Y136756
X140061Y136756
X138846Y135931
X140101Y135926
X137981Y135636
X138331Y135506
X137991Y135366
X138831Y135256
X138661Y135066
X139091Y135036
X13945Y1347
X139105Y134252
X138685Y134138
X140148Y134123
X137883Y133586
X140153Y133581
X138211Y133566
X139471Y133352
X139801Y133293
X140162Y132736
X139801Y132491
X139477Y132052
X138871Y131199
X139481Y130349
X139957Y129982
X139194Y129955
X139625Y12965
X138873Y129649
X138815Y128369
X138355Y128369
X138399Y127961
X138896Y127949
X137916Y127941
X140032Y127911
X138994Y12504
X139994Y12504
X137873Y12504
X139414Y124506
X138361Y124506
X139987Y12398
X137998Y12398
X139009Y12398
X138425Y123454
X139578Y123454
X139059Y122923
X138014Y122923
X140148Y122923
X138531Y12239
X139475Y12239
X13803Y12187
X13902Y12187
X139929Y121815
X13912Y12082
X137967Y120462
X139721Y120289
X138674Y119755
X139381Y119048
X138021Y119047
X140088Y118341
X138728Y11834
X138094Y117907
X139435Y117633
X13878Y11722
X140112Y116949
X137916Y116658
X138524Y116472
X139664Y116337
X138686Y115889
X139459Y115122
X139938Y115058
X138524Y115058
X138027Y114922
X140071Y114509
X139349Y114471
X139371Y114066
X14008Y11402
X138467Y113895
X139231Y112937
X139938Y112229
X138524Y112229
X139231Y111522
X138524Y110815
X139938Y110815
X139089Y109231
X1403Y1073
X13844Y103306
X139854Y103306
X139147Y102599
X139854Y101892
X13844Y101892
X139147Y101184
X139854Y100477
X13844Y100477
X142682Y100477
X141268Y100477
X140561Y101184
X141975Y101184
X142682Y101892
X141268Y101892
X141975Y102599
X140561Y102599
X142682Y103306
X141268Y103306
X1415Y1073
X1427Y1073
X141191Y109248
X141352Y110815
X142766Y110815
X140645Y111522
X142059Y111522
X141352Y112229
X142766Y112229
X140645Y112937
X142059Y112937
X14177Y11402
X14247Y11403
X14128Y11404
X14057Y11404
X14055Y11436
X142441Y114459
X141331Y114669
X14196Y115094
X1409Y115101
X14252Y11588
X140971Y11609
X142091Y116289
X1415Y11689
X142791Y117279
X140795Y117634
X142061Y117999
X14109Y11883
X142733Y118942
X142063Y1196
X14041Y11962
X141392Y120258
X142372Y120389
X141911Y120856
X140721Y120917
X142822Y121319
X141446Y121323
X140983Y12179
X14221Y12193
X14038Y12239
X141591Y122549
X141308Y122884
X142401Y123069
X14202Y12345
X140667Y123454
X141086Y12398
X142402Y12398
X142785Y124446
X141387Y124506
X140435Y124506
X140833Y12504
X141784Y12504
X141441Y127934
X1423Y128358
X141Y128367
X142684Y129629
X141736Y129633
X141241Y129796
X141541Y129996
X140361Y130387
X14077Y130796
X141531Y130996
X141291Y131296
X140882Y131296
X140375Y131465
X141751Y131556
X141131Y131606
X140361Y132236
X140891Y132266
X142311Y132656
X141734Y132879
X142011Y133126
X142461Y133806
X141151Y134516
X141131Y134866
X141101Y135126
X142771Y135236
X141731Y135236
X142111Y135256
X141331Y135316
X141091Y135476
X140951Y135676
X141261Y135796
X141211Y136036
X141191Y136406
X141571Y136636
X14191Y13664
X14142Y137315
X142711Y137316
X14216Y137319
X142371Y137586
X141581Y137706
X142771Y138066
X140641Y138186
X140862Y138571
X142641Y139166
X142161Y140366
X142361Y141376
X141911Y141526
X141601Y142196
X142661Y143916
X141461Y145116
X141161Y146616
X141761Y148116
X14245Y14824
X14117Y14953
X142661Y149616
X141461Y151116
X141461Y152316
X142361Y153216
X141461Y154416
X143261Y154416
X144761Y154416
X144161Y153216
X143261Y152316
X145061Y152316
X143561Y151116
X144761Y149616
X143861Y148116
X142961Y146616
X144761Y146616
X143861Y145116
X144161Y142416
X142881Y141746
X145321Y140449
X144161Y140016
X143312Y139223
X145129Y13912
X145168Y138736
X14328Y13851
X143559Y137967
X144802Y137909
X143121Y137596
X144394Y137297
X143581Y136946
X143283Y136892
X145031Y136526
X144431Y136196
X144671Y136196
X143321Y136176
X143611Y136166
X144481Y135856
X143401Y135836
X143061Y135836
X144141Y135526
X144471Y135516
X143071Y135506
X144151Y135186
X144471Y135176
X143751Y135166
X144161Y134836
X143411Y134836
X143761Y134826
X144471Y134826
X144461Y134486
X144151Y134476
X143771Y134466
X143041Y134436
X144051Y134156
X144441Y134156
X143861Y133486
X143291Y133426
X143321Y133166
X144361Y132586
X144711Y132576
X145011Y132486
X144196Y129632
X143901Y128374
X144736Y127933
X142856Y127925
X144173Y125952
X144888Y125664
X142987Y12504
X143478Y124641
X144381Y124079
X144557Y123574
X143849Y123386
X143474Y122836
X144739Y122488
X143159Y12231
X144181Y122129
X143927Y121552
X144888Y121422
X144796Y120673
X1436Y12054
X142842Y11993
X144403Y119737
X143298Y119475
X14375Y11902
X145131Y11901
X144202Y118564
X143404Y118283
X144655Y118109
X14511Y117654
X144032Y117625
X144671Y116967
X143381Y116649
X144111Y115859
X144721Y115269
X143671Y114819
X145121Y114709
X143921Y114699
X14483Y11403
X14417Y11403
X14367Y11401
X14298Y114
X144888Y112937
X143474Y112937
X144181Y112229
X144888Y111522
X143474Y111522
X144181Y110815
X143733Y109231
X1451Y1073
X1439Y1073
X144096Y103306
X143389Y102599
X144804Y102599
X144096Y101892
X144804Y101184
X143389Y101184
X144096Y100477
X145511Y100477
X146925Y100477
X146218Y101184
X147632Y101184
X145511Y101892
X146925Y101892
X146218Y102599
X147632Y102599
X145511Y103306
X146925Y103306
X1475Y10735
X14635Y10735
X14631Y109248
X145595Y110815
X147009Y110815
X146302Y111522
X147716Y111522
X145595Y112229
X147009Y112229
X146302Y112937
X147716Y112937
X14727Y114
X14661Y11401
X1478Y11401
X14605Y11402
X14539Y11404
X146621Y114719
X146321Y114719
X147511Y114729
X147821Y115069
X145785Y115884
X146613Y116149
X145361Y116308
X147481Y116609
X146088Y116674
X145568Y117199
X146804Y117336
X145958Y118182
X147176Y1183
X147716Y118593
X147009Y1193
X146014Y119475
X146302Y120008
X147134Y120076
X145595Y120715
X146424Y120817
X147297Y120871
X145537Y12169
X147422Y121832
X146305Y121839
X146998Y122414
X145424Y122706
X146774Y122881
X147412Y123144
X146297Y123349
X145915Y123754
X147026Y123759
X14566Y1243
X14564Y124549
X146581Y124798
X146271Y124819
X147271Y124819
X146359Y127941
X147465Y128351
X145594Y128374
X147062Y129632
X145599Y129634
X146741Y130416
X147741Y130866
X146081Y131656
X146081Y131896
X146081Y132136
X145771Y132756
X145341Y132866
X146781Y132876
X145831Y133226
X145601Y133226
X145361Y133226
X147591Y133856
X145471Y133856
X146741Y133876
X145911Y133886
X145431Y134446
X147611Y134446
X146111Y134446
X146871Y135076
X145571Y135086
X145481Y135826
X147811Y135826
X146381Y135826
X145441Y136466
X147041Y136476
X147461Y137016
X146393Y137791
X14718Y138837
X146376Y139276
X147161Y140016
X145661Y141516
X147161Y142416
X145661Y143916
X147461Y145116
X146561Y146616
X145961Y148116
X146861Y149616
X147461Y151116
X145661Y151116
X146861Y152316
X145961Y153216
X147761Y153216
X146561Y154416
X148661Y154416
X149561Y153216
X148661Y152316
X149261Y151116
X148961Y149616
X148061Y148116
X150161Y148116
X148361Y146616
X150161Y146616
X149261Y145116
X148661Y143916
X150161Y142416
X148661Y141516
X150161Y140016
X148661Y138516
X149561Y137016
X148291Y136476
X149211Y136476
X150031Y136466
X149671Y135826
X148741Y135816
X147971Y135076
X149331Y135076
X148891Y134446
X150291Y134446
X149491Y133856
X148541Y133856
X147931Y133566
X150281Y132966
X148391Y132486
X148001Y132476
X148781Y132476
X148471Y130756
X148141Y130756
X148791Y130746
X149914Y129635
X148458Y129633
X149675Y128915
X15016Y128297
X148385Y127925
X149162Y127771
X150286Y127119
X148571Y125969
X14888Y1258
X149616Y125109
X14821Y12468
X14913Y12425
X149837Y123543
X148205Y123126
X149036Y122469
X147865Y122285
X149036Y121869
X14803Y12174
X149036Y121269
X147899Y121214
X148818Y12104
X148233Y120814
X149789Y120672
X148232Y120573
X148818Y120249
X150097Y119976
X14866Y119557
X150052Y119187
X148061Y119171
X149684Y118391
X148871Y118361
X1495Y11774
X148228Y117221
X14964Y11707
X14936Y1162
X148651Y115419
X14958Y11492
X148721Y114709
X14847Y114
X14913Y112937
X148423Y112229
X149837Y112229
X14913Y111522
X149837Y110815
X148423Y110815
X148836Y109265
X14875Y1073
X148339Y103306
X149753Y101892
X148339Y101892
X149046Y101184
X149753Y100477
X148339Y100477
X152582Y100477
X151168Y100477
X15046Y101184
X151875Y101184
X152582Y101892
X152582Y103306
X1516Y1072
X151361Y109281
X152666Y110815
X151252Y110815
X150545Y111522
X151959Y111522
X151252Y112229
X152666Y112229
X151959Y112937
X150545Y112937
X1504Y11411
X15266Y11421
X152Y11421
X151153Y114376
X151611Y114889
X150545Y115765
X15225Y11579
X152703Y116284
X15156Y11648
X150959Y11706
X151585Y117564
X150528Y117701
X151912Y118354
X151252Y1193
X152666Y1193
X1509Y12
X151959Y120008
X1509Y120298
X150903Y120647
X151252Y120715
X150901Y120944
X150931Y121289
X151959Y121422
X150931Y121589
X150931Y121889
X152666Y121999
X151252Y122129
X150931Y122189
X150931Y122539
X151926Y122799
X150931Y122839
X151216Y123509
X152736Y123653
X150516Y124219
X152633Y124321
X152004Y124385
X152666Y124957
X151414Y124974
X151887Y125067
X151409Y125545
X151959Y125664
X150682Y125707
X151043Y125911
X151252Y126372
X152421Y126419
X15132Y12686
X15198Y12691
X151959Y128493
X151255Y129632
X152621Y129636
X151041Y131366
X150791Y131896
X151371Y132476
X150961Y132946
X152261Y133116
X151391Y133856
X150441Y133856
X151531Y134446
X150821Y135076
X152421Y135336
X151461Y135716
X150671Y136096
X152161Y136416
X151141Y136566
X151611Y137036
X152811Y137066
X150951Y137226
X152081Y137506
X152551Y137976
X151881Y138166
X151061Y138516
X152811Y139096
X151661Y141516
X151661Y143916
X151061Y145116
X151961Y146616
X152261Y148116
X151061Y149616
X151361Y151116
X152261Y152316
X150461Y152316
X151361Y153216
X150761Y154416
X152861Y154416
X154961Y154416
X153161Y153216
X154961Y153216
X154061Y152316
X152861Y151116
X154661Y151116
X153161Y149616
X155261Y149616
X154361Y148116
X153761Y146616
X154661Y145116
X153161Y144816
X154661Y143916
X153161Y142416
X154661Y141516
X154671Y140956
X154901Y140326
X153741Y140026
X153161Y140016
X154431Y139856
X153961Y139386
X154971Y139226
X153491Y138916
X154281Y138536
X153021Y138446
X155111Y138026
X153571Y137826
X154191Y137106
X154981Y136726
X153171Y136086
X154341Y136086
X155261Y135816
X153701Y135446
X1547Y135142
X15305Y13445
X15415Y13445
X154961Y133116
X154061Y132216
X152861Y131316
X153761Y130416
X15379Y12926
X15402Y12852
X15498Y12826
X15376Y128241
X154326Y127161
X15338Y127
X155121Y126719
X155141Y126359
X153751Y125949
X155141Y125919
X153921Y125599
X153911Y125249
X153931Y124899
X153941Y124599
X154521Y124359
X153881Y124119
X153951Y123779
X154021Y123529
X153941Y123259
X153971Y122983
X153423Y122966
X154656Y122649
X154456Y122279
X154876Y121069
X154516Y121051
X155216Y120829
X154936Y120829
X153111Y120816
X153373Y118593
X154787Y118593
X15408Y117886
X152985Y117281
X154787Y117179
X15447Y115785
X153473Y115514
X154001Y115266
X153091Y114929
X154171Y114919
X154351Y114649
X1535Y11419
X15501Y11417
X15426Y11416
X153373Y112937
X154787Y112937
X15408Y112229
X153373Y111522
X154787Y111522
X15408Y110815
X153887Y109298
X1546Y10725
X1531Y10725
X153996Y103306
X154703Y102599
X153289Y102599
X153996Y101892
X153289Y101184
X154703Y101184
X153996Y100477
X15541Y100477
X156824Y100477
X157532Y101184
X156117Y101184
X156824Y101892
X157532Y102599
X156824Y103306
X157532Y104013
X156117Y104013
X156824Y10472
X156117Y105427
X157532Y105427
X156861Y106266
X157411Y106716
X156861Y107116
X1561Y10725
X156824Y108963
X155494Y110815
X157161Y111366
X155494Y112229
X156201Y112937
X157616Y112937
X156909Y113644
X1557Y11417
X157616Y114351
X155697Y114567
X156111Y114889
X156909Y115058
X156201Y115765
X157616Y115765
X155494Y116472
X156909Y116472
X156241Y117636
X157281Y117666
X156711Y117886
X1566Y1183
X1566Y1186
X1566Y11895
X15751Y12011
X15724Y12018
X156921Y120219
X155471Y120229
X156541Y120229
X156161Y120239
X157171Y120819
X155861Y120849
X156431Y121216
X156931Y122416
X157831Y122416
X157531Y122416
X157231Y122416
X156331Y122416
X156631Y122416
X157831Y122666
X157531Y122666
X157231Y122666
X156931Y122666
X156331Y122666
X156631Y122666
X157831Y122916
X157231Y122916
X157531Y122916
X156931Y122916
X156331Y122916
X156631Y122916
X156631Y123166
X157531Y123166
X156931Y123166
X157231Y123166
X157831Y123166
X156331Y123166
X157531Y123416
X157231Y123416
X156931Y123416
X156631Y123416
X157831Y123416
X156331Y123416
X156631Y123666
X156931Y123666
X157531Y123666
X157231Y123666
X156331Y123666
X157831Y123666
X157831Y123916
X157231Y123916
X156931Y123916
X157531Y123916
X156331Y123916
X156631Y123916
X156931Y124166
X157831Y124166
X157231Y124166
X156331Y124166
X157531Y124166
X156631Y124166
X155501Y125919
X156661Y126339
X15641Y12692
X156782Y126935
X156914Y127411
X155826Y127421
X157293Y127946
X15538Y12826
X156532Y128727
X157631Y129351
X157361Y130416
X155861Y131316
X156761Y132216
X157661Y133116
X15645Y13445
X157321Y135144
X156031Y135153
X156761Y135816
X156461Y137016
X157661Y137016
X155621Y137366
X156261Y138016
X157091Y138056
X155771Y138696
X157351Y138696
X156511Y139226
X156161Y140016
X157661Y140016
X15631Y140631
X155371Y140796
X155841Y141266
X157661Y141516
X156311Y141736
X155601Y141886
X156781Y142206
X157251Y142676
X156531Y142816
X157461Y143746
X15668Y143787
X155561Y146616
X157361Y146616
X156461Y148116
X157361Y149616
X156461Y151116
X157661Y152316
X155861Y152316
X156761Y153216
X157061Y154416
X159161Y154416
X158561Y153216
X159461Y152316
X158261Y151116
X160061Y151116
X159461Y149616
X158561Y148116
X159161Y146616
X158261Y145116
X159624Y145049
X158391Y144676
X158784Y144209
X159451Y143687
X15804Y143465
X159801Y143006
X158315Y142532
X158139Y141984
X159588Y141925
X159461Y141516
X158561Y140616
X159461Y140016
X159321Y139226
X158091Y139226
X158771Y138696
X160021Y138696
X157921Y138056
X159581Y138056
X158751Y138056
X159161Y137016
X159461Y135816
X157961Y135816
X158612Y135136
X159902Y135128
X15915Y13445
X15795Y13445
X159461Y132216
X158861Y131316
X159848Y129351
X158079Y128772
X15903Y128493
X158021Y128199
X15834Y12785
X159737Y127786
X15832Y12765
X160221Y126949
X159071Y126679
X159737Y126372
X158331Y126349
X158931Y126029
X158961Y125759
X158331Y125349
X159921Y125019
X158461Y124619
X159321Y124569
X160221Y124519
X158131Y124166
X159311Y123999
X160211Y123965
X158131Y123916
X158581Y123779
X158131Y123666
X158131Y123416
X159381Y123389
X158131Y123166
X159331Y122989
X158131Y122916
X158611Y122729
X158131Y122666
X158131Y122416
X159311Y122399
X15962Y122386
X158611Y122159
X160131Y121734
X159219Y121547
X15881Y12121
X15824Y1212
X158811Y120219
X158921Y119979
X15933Y1197
X159761Y119449
X159737Y117886
X15903Y117179
X158323Y116472
X160191Y116126
X15903Y115765
X160216Y115271
X158323Y115058
X159282Y113677
X16023Y11336
X159737Y112229
X158511Y111366
X160111Y110566
X158239Y108963
X158946Y108256
X158239Y107548
X158946Y106841
X158211Y106816
X158239Y106134
X158946Y105427
X159653Y10472
X158239Y10472
X158946Y104013
X159653Y103306
X158239Y103306
X158946Y102599
X159653Y101892
X158239Y101892
X158946Y101184
X158239Y100477
X159653Y100477
X161067Y100477
X162481Y100477
X161774Y101184
X16036Y101184
X161067Y101892
X162481Y101892
X161774Y102599
X162481Y103306
X16036Y104013
X161481Y107276
X162661Y110566
X161411Y110566
X162565Y112229
X161151Y112229
X16172Y11336
X16223Y11336
X16072Y11337
X161671Y115269
X160711Y115271
X162311Y115276
X161211Y115286
X162711Y115291
X160731Y116116
X161671Y116139
X162251Y116159
X162565Y116472
X161858Y117179
X161281Y117439
X162565Y117886
X161858Y118593
X162471Y118629
X162471Y119491
X162328Y120969
X161966Y121451
X162563Y121719
X161041Y121749
X161897Y122386
X16078Y122386
X162437Y12271
X161297Y12314
X16045Y12314
X160341Y123389
X162565Y123543
X16045Y124
X161489Y124
X161521Y124519
X160833Y124771
X162616Y125078
X161072Y125505
X161858Y125664
X161151Y126372
X162565Y126372
X162031Y126669
X161151Y127786
X162565Y127786
X160444Y128493
X161858Y128493
X162039Y12935
X160961Y130416
X161861Y131316
X160661Y131316
X162161Y132216
X160361Y133116
X16185Y13445
X16065Y13445
X161192Y135119
X162161Y135816
X160661Y135816
X161861Y137016
X160361Y137016
X161241Y138056
X162071Y138056
X160411Y138056
X162641Y138676
X161741Y138676
X161181Y138696
X162691Y139226
X161641Y139226
X160491Y139226
X161261Y140016
X160361Y140616
X162161Y140616
X161261Y141516
X161409Y141964
X160651Y143006
X161501Y143006
X162351Y143006
X161389Y143589
X162281Y144446
X160987Y144511
X160567Y144842
X162419Y145683
X160403Y145828
X161722Y146076
X16105Y14645
X162761Y146616
X161925Y14735
X162757Y148095
X160661Y148116
X161561Y149616
X162161Y151116
X160961Y152316
X160361Y153216
X162161Y153216
X161261Y154416
X163361Y154416
X164261Y153216
X163061Y152316
X165161Y152316
X164261Y151116
X163661Y149616
X162904Y14904
X163633Y148095
X164509Y148095
X164264Y14735
X163033Y14735
X164561Y146616
X165193Y145887
X163806Y145785
X163201Y144446
X164121Y144446
X165041Y144446
X162995Y143805
X164816Y143648
X163201Y143006
X164051Y143006
X164901Y143006
X164737Y142042
X163073Y142003
X163061Y141516
X164861Y141516
X163961Y140616
X163061Y140016
X164861Y140016
X163731Y139226
X164981Y139226
X163541Y138676
X164441Y138676
X163731Y138056
X162901Y138056
X164561Y138056
X163061Y137016
X164561Y137016
X164861Y135816
X163361Y135816
X163027Y135111
X164167Y135102
X1645Y13445
X163061Y133116
X164861Y132216
X164861Y131316
X163061Y131316
X164561Y130416
X164098Y129351
X165061Y128655
X163273Y128493
X165201Y127719
X165201Y127369
X163273Y127079
X16522Y12634
X163273Y125664
X163273Y12425
X16496Y124139
X16398Y123543
X163273Y122836
X163213Y121934
X164687Y121422
X163727Y12142
X163144Y120797
X163727Y120171
X164687Y120008
X163144Y119624
X163727Y118949
X164687Y118593
X163727Y117637
X164711Y117476
X163273Y117179
X163751Y116179
X164711Y116169
X163191Y116169
X164041Y115602
X163761Y115279
X165261Y115279
X164681Y115279
X163181Y115279
X164211Y115276
X16522Y11336
X1632Y11336
X16472Y11336
X163709Y113352
X16398Y112229
X164687Y111522
X163561Y110566
X162961Y107276
X164471Y107276
X163895Y103306
X163188Y102599
X163895Y101892
X163188Y101184
X164603Y101184
X163895Y100477
X16531Y100477
X166017Y101184
X16655Y1036
X1677Y1036
X1661Y10415
X1677Y1048
X16655Y1048
X166017Y105427
X166346Y105909
X166346Y10707
X165961Y107276
X16775Y1074
X166535Y107401
X1662Y108
X166536Y108519
X1676Y10865
X166808Y110815
X165394Y110815
X166101Y111522
X166808Y112229
X165394Y112229
X166101Y112937
X1672Y11295
X166011Y114166
X167515Y114351
X1671Y1144
X166808Y115058
X165711Y115276
X167515Y115765
X165481Y115939
X166808Y116472
X16564Y11672
X167515Y117179
X166101Y117179
X165394Y117886
X166101Y118593
X165394Y1193
X167126Y119375
X166101Y120008
X167724Y120509
X165394Y120715
X166101Y121422
X167515Y121422
X166121Y122069
X165421Y122319
X166121Y122669
X166808Y123543
X165394Y123543
X165821Y123555
X166261Y123875
X16541Y123875
X167721Y124069
X167721Y125069
X166101Y125664
X167515Y125664
X166808Y126372
X165541Y126769
X167515Y127079
X166262Y127927
X167515Y128493
X166824Y129631
X165411Y129635
X166361Y131316
X167561Y132216
X166361Y132816
X165761Y133116
X16725Y13445
X165876Y135128
X167786Y135153
X167561Y135816
X166061Y135816
X165761Y137016
X167261Y137016
X167051Y138056
X166221Y138056
X165391Y138056
X167141Y138676
X165341Y138676
X166241Y138676
X165911Y139236
X167211Y139246
X166661Y140016
X165761Y140616
X167561Y140616
X166661Y141516
X166401Y142082
X165751Y143006
X166601Y143006
X167451Y143006
X166617Y143687
X165961Y144446
X166881Y144446
X167801Y144446
X165461Y145116
X167763Y145806
X16659Y145877
X166361Y146616
X165467Y14735
X166926Y14735
X166261Y148095
X167137Y148095
X165385Y148095
X166799Y148942
X165761Y149616
X166361Y151116
X167261Y152316
X166361Y153216
X165461Y154416
X167561Y154416
X169661Y154416
X168461Y153216
X169361Y152316
X168461Y151116
X167861Y149616
X169961Y149616
X169146Y148981
X1682Y148096
X169249Y148096
X170298Y148096
X169851Y14735
X168367Y14735
X168161Y146616
X169961Y146616
X169405Y145745
X169061Y145116
X168721Y144446
X169641Y144446
X170219Y143765
X168418Y143726
X168301Y143006
X169151Y143006
X170001Y143006
X16973Y14216
X168066Y142121
X168461Y141516
X170261Y141516
X169361Y140616
X168461Y140016
X170261Y140016
X168651Y139256
X170081Y139256
X168041Y138676
X169841Y138676
X168941Y138676
X167881Y138056
X169541Y138056
X168711Y138056
X169961Y137016
X168461Y137016
X170261Y135816
X168761Y135816
X169848Y135153
X16995Y13445
X16875Y1335
X168461Y133116
X169233Y132461
X170261Y132216
X167861Y131316
X169409Y130973
X168161Y130416
X169826Y129211
X168222Y1292
X168929Y128493
X168222Y127786
X169611Y127516
X168222Y126372
X169636Y126372
X168929Y125664
X168222Y124957
X169636Y124957
X168121Y124569
X169473Y12382
X168222Y123543
X16811Y12267
X169119Y122226
X168121Y122069
X169808Y121613
X168505Y121276
X169977Y120433
X168766Y119498
X167892Y118149
X168402Y117182
X16994Y11708
X169636Y116472
X168578Y116448
X168929Y115765
X16985Y1152
X16945Y1152
X16865Y1152
X1691Y1152
X1702Y1152
X16835Y1152
X16825Y11375
X16875Y11375
X1685Y11375
X16785Y11365
X1685Y1135
X16875Y1135
X16825Y1135
X16975Y113
X17025Y113
X16785Y113
X16925Y113
X16785Y1122
X169601Y111936
X169361Y111936
X169601Y111696
X169361Y111696
X16825Y1115
X169361Y111456
X169601Y111456
X16914Y11108
X169841Y111072
X168222Y110815
X17024Y1107
X16794Y11033
X16832Y1096
X16832Y10925
X16918Y10858
X17025Y10855
X1681Y108
X1698Y10664
X168222Y106573
X16904Y1058
X168222Y105158
X1698Y105
X168929Y104451
X1682Y10415
X169636Y103744
X168222Y103744
X168929Y103037
X169636Y10233
X168222Y10233
X168929Y101623
X169636Y100916
X168222Y100916
X171051Y100916
X172465Y100916
X170344Y101623
X171051Y10233
X172465Y10233
X171758Y103037
X170344Y103037
X170344Y104451
X17052Y1058
X170344Y10728
X171758Y10728
X17249Y10794
X171051Y107987
X17082Y10856
X17142Y1086
X171711Y108829
X17098Y10905
X17066Y10905
X17035Y10906
X17103Y11069
X17066Y1107
X1717Y11089
X1714Y1109
X172Y1109
X172671Y110979
X171061Y111516
X171758Y111522
X171511Y111966
X170561Y111966
X17075Y113
X17235Y1147
X17155Y1147
X17085Y1147
X1707Y1164
X17228Y116456
X172127Y117036
X17258Y11728
X17226Y11754
X171765Y117837
X17085Y117882
X1723Y1186
X17186Y11868
X17036Y119115
X171632Y11962
X170873Y120345
X172797Y120356
X172072Y120714
X170614Y121555
X1713Y121674
X171518Y121675
X171281Y121926
X171509Y121926
X171284Y122165
X171515Y12217
X17175Y122789
X172111Y123116
X172466Y123121
X17059Y123161
X171188Y123973
X171051Y124957
X172465Y124957
X170344Y125664
X171758Y125664
X172465Y126372
X171051Y126372
X171758Y127079
X172465Y127786
X17058Y128075
X171758Y128493
X171051Y1292
X172465Y1292
X171761Y130416
X170861Y131316
X172207Y131629
X171161Y133116
X17265Y13445
X172051Y135153
X171461Y135816
X171161Y137016
X172661Y137016
X172031Y138056
X171201Y138056
X170371Y138056
X171641Y138676
X170741Y138676
X172541Y138676
X171491Y139256
X172061Y140016
X171161Y140616
X172061Y141516
X171394Y142199
X172551Y143006
X170851Y143006
X171701Y143006
X171414Y143805
X172401Y144446
X171481Y144446
X170561Y144446
X172661Y145116
X172777Y145628
X171094Y145688
X171761Y146616
X172329Y14735
X171037Y14735
X171625Y148096
X170923Y149071
X172061Y149616
X172661Y151116
X170561Y151116
X171461Y152316
X170561Y153216
X172661Y153216
X171761Y154416
X173861Y154416
X174761Y153216
X173561Y152316
X174761Y151116
X174461Y149616
X17493Y14932
X173331Y149071
X172907Y148096
X174182Y148096
X173721Y14735
X173561Y146616
X174461Y145568
X173321Y144446
X174241Y144446
X175161Y144446
X173313Y143805
X174762Y143648
X174251Y143006
X175101Y143006
X173401Y143006
X173058Y142238
X174762Y14214
X173861Y141516
X174761Y140616
X172961Y140616
X173861Y140016
X172901Y139256
X174311Y139246
X174341Y138676
X173441Y138676
X175241Y138676
X174731Y138056
X172931Y138056
X173831Y138056
X173861Y137016
X172961Y135816
X174161Y135816
X174037Y135153
X1751Y13375
X173861Y133116
X172961Y132216
X174599Y131993
X173861Y131316
X173429Y130734
X173879Y1292
X173172Y128493
X174586Y128493
X173879Y127786
X175293Y127786
X173172Y127079
X174586Y127079
X173879Y126372
X175293Y126372
X174586Y125664
X173172Y125664
X173879Y124957
X175293Y124957
X172935Y123881
X173272Y123126
X172917Y123105
X173039Y12069
X17403Y120684
X173546Y12025
X174506Y12025
X17289Y119971
X17322Y11964
X17426Y1193
X17466Y1193
X175Y1193
X17428Y11764
X17502Y11764
X17464Y11764
X17426Y11714
X175086Y117114
X173154Y117054
X174169Y116286
X173078Y115702
X174047Y11568
X175178Y115454
X17395Y1147
X17305Y1147
X1752Y114571
X175293Y107987
X17368Y10798
X17332Y10798
X17284Y10795
X173172Y10728
X173172Y103037
X175293Y10233
X174586Y101623
X173172Y101623
X175293Y100916
X173879Y100916
X176708Y100916
X176Y101623
X177415Y101623
X176708Y10233
X177415Y10728
X177415Y108694
X175909Y110567
X176Y111522
X176687Y112362
X176Y112937
X176708Y113644
X176019Y114118
X17672Y11452
X175993Y115713
X176Y117179
X1757Y11742
X176216Y117701
X17664Y11918
X176Y1195
X1757Y1195
X17535Y1195
X176614Y119618
X177579Y123084
X17638Y12421
X177415Y12425
X177143Y12485
X176708Y124957
X177415Y125664
X176Y125664
X175971Y126406
X176691Y126406
X175711Y127026
X177415Y127079
X176702Y127261
X176001Y127266
X175848Y127613
X176708Y127786
X176Y128493
X177053Y12954
X175361Y130416
X176475Y130514
X175661Y132216
X177441Y132496
X176156Y133838
X177431Y133986
X176207Y135136
X177401Y135476
X1762Y1355
X176861Y135816
X176303Y136431
X175361Y137016
X176531Y138056
X175631Y138056
X177431Y138056
X177041Y138676
X176141Y138676
X177131Y139236
X175721Y139246
X175661Y140016
X176561Y140616
X17742Y14145
X175661Y141516
X177541Y142946
X176141Y143006
X176061Y144446
X176261Y145116
X175928Y145676
X177161Y146616
X175361Y146616
X17775Y14735
X175443Y14735
X176731Y148096
X175456Y148096
X177754Y148996
X176561Y149616
X176861Y151116
X17705Y1522
X175661Y152316
X176861Y153216
X1774Y1539
X175961Y154416
X178061Y154416
X180161Y154416
X179861Y152316
X178961Y151116
X178661Y149616
X179354Y148103
X178006Y148096
X178926Y146924
X17935Y1457
X1793Y144845
X178061Y144516
X179331Y144066
X1793Y14335
X178661Y143316
X17785Y14295
X180311Y141879
X178361Y141816
X179457Y141204
X179861Y140316
X178541Y139246
X179921Y139076
X177941Y138676
X179461Y138416
X178241Y137996
X178371Y137286
X179481Y137176
X179481Y136216
X178151Y135576
X179141Y135176
X178211Y134236
X179731Y134016
X178861Y133186
X178061Y132476
X179861Y132216
X179127Y131471
X178961Y130416
X179536Y1292
X180243Y128493
X178122Y127786
X179536Y127786
X180243Y127079
X179536Y126372
X178829Y125664
X180243Y125664
X179536Y124957
X17925Y12485
X180243Y12425
X178829Y12425
X179536Y123543
X178419Y123433
X179449Y122502
X179353Y1214
X179928Y12128
X179372Y120228
X179372Y119196
X180315Y118427
X178278Y118011
X179385Y117862
X178273Y117699
X178273Y117226
X178267Y116873
X179434Y116841
X179464Y115908
X179474Y114877
X180243Y114351
X179536Y113644
X180243Y112937
X179536Y112229
X180243Y111522
X179536Y110815
X178829Y110108
X180243Y110108
X178122Y109401
X179536Y109401
X178829Y108694
X180243Y108694
X178122Y107987
X179536Y107987
X178829Y10728
X180243Y10728
X179536Y106573
X178122Y106573
X178829Y105865
X180243Y105865
X178122Y105158
X179536Y105158
X180243Y104451
X178829Y104451
X178122Y103744
X179536Y103744
X1795Y10315
X178829Y103037
X180243Y103037
X178122Y10233
X17805Y1015
X178122Y100916
X1784Y1005
X1806Y1004
X180561Y115916
X180561Y116816
X180444Y119844
X180572Y121261
X180388Y122881
X180551Y129458
X180576Y130784
X180551Y132257
X180493Y133735
X180471Y134846
X180491Y135676
X180501Y136566
X180531Y137456
X180501Y138326
X18045Y1433
X180561Y14426
X18035Y14505
X180607Y146614
X18055Y1481
X180461Y149616
T3C.02362F197S55
X172743Y104116G85X171579Y104116
X172643Y101636G85X171679Y101636
X174011Y102453G85X174011Y103417
T4C.02874F197S55
X14422Y138616
X146142Y138616
X15961Y127269
X161532Y127269
T5C.02953F197S55
X11948Y1054
X120071Y105991
X119283Y105991
X122433Y105991
X121645Y105991
X120858Y105991
X122236Y1054
X120464Y1054
X121252Y1054
T6C.0315F197S55
X172079Y113782
X172079Y11516
X17515Y123289
X17515Y121911
X176372Y109016
X17775Y109016
T7C.035F197S55
X128861Y105216
X129861Y105216
X129361Y106216
X130361Y106216
X131361Y106216
X132361Y106216
X134861Y106216
X135861Y106216
X136861Y106216
X131861Y105216
X135361Y105216
X130861Y105216
X136361Y105216
X134361Y105216
X137361Y105216
X139861Y105216
X140861Y105216
X141861Y105216
X142861Y105216
X141361Y106216
X140361Y106216
X142361Y106216
X137861Y106216
X143361Y106216
X145861Y106216
X146861Y106216
X147861Y106216
X148861Y106216
X147361Y105216
X146361Y105216
X148361Y105216
X145361Y105216
T8C.03543F197S55
X11518Y10405
X11518Y104837
X11518Y105625
X11518Y106412
X105811Y141476
X105811Y142476
X105811Y143476
X152161Y106166
X151661Y105166
X152661Y105166
X154661Y105166
X153661Y105166
X161162Y105166
X162162Y105166
X154161Y106166
X155161Y106166
X153161Y106166
X161662Y106166
X162662Y106166
X164662Y106166
X163662Y106166
X163162Y105166
X164162Y105166
T9C.0374F197S55
X17505Y111246
X17505Y113214
X1783Y121384
X1783Y119416
T10C.039F197S55
X101686Y107179
X101686Y108179
X101686Y109179
X101686Y110179
X10205Y1361
X10505Y1361
X10305Y1361
X10405Y1361
X10205Y1371
X10305Y1371
X10505Y1371
X10405Y1371
X10605Y1371
X10705Y1371
X10805Y1371
X10705Y1361
X10605Y1361
X10805Y1361
X10948Y11518
X10848Y11518
X109486Y109879
X10764Y10239
X10864Y10239
X110486Y109879
X11148Y11518
X11048Y11518
X1468Y125319
X1458Y125319
X1478Y125319
X1488Y125319
X179211Y126856
X179211Y128656
T11C.03937F197S55
X106277Y146299G85X105687Y146299
X106651Y148071G85X106651Y148661
T12C.04331F139S55
X11275Y132581
X128795Y132581
T13C.04724F139S55
X110522Y123709
X110522Y131583
T14C.05118F107S55
X17562Y103506
X176802Y103506
X176802Y104766
X17562Y104766
X17562Y106026
X176802Y106026
X102911Y14813G85X102911Y148602
T15C.05906F107S55
X174971Y107089
X177719Y145454
X177719Y140439
X177769Y136504
X177769Y131489
X177451Y102443
T16C.05906F107S55
X102911Y14689
X105391Y148366
X102911Y149842
T17C.06F089S55
X178211Y126356
X178211Y129156
T18C.06299F089S55
X114109Y103763
X116251Y103763
X116251Y106519
X114109Y106519
T19C.06299F089S55
X122593Y132581
X138637Y132581
T20C.07874F081S55
X112908Y151971
X122435Y151971
X128953Y151971
X13848Y151971
T21C.09449F066S55
X118271Y104613
X123445Y104613
T22C.11811F069S658
X106677Y140657
X104311Y142476
X106677Y144295
T23C.12598F035S794
X151161Y102666
X160662Y102666
X165162Y102666
X155661Y102666
T24C.132F035S794
X128361Y102716
X149361Y102716
T25C.158F035S9
X1023Y15275
X1785Y1526
X17955Y1015
M30
